<?xml version="1.0" encoding="UTF-8" standalone="no"?>
<!-- Created with Inkscape (http://www.inkscape.org/) -->

<svg
   width="1080"
   height="1080"
   viewBox="0 0 1080 1080"
   version="1.1"
   id="svg1"
   xml:space="preserve"
   inkscape:version="1.3 (0e150ed6c4, 2023-07-21)"
   sodipodi:docname="ptucan.svg"
   inkscape:export-filename="ptucan.svg"
   inkscape:export-xdpi="96"
   inkscape:export-ydpi="96"
   xmlns:inkscape="http://www.inkscape.org/namespaces/inkscape"
   xmlns:sodipodi="http://sodipodi.sourceforge.net/DTD/sodipodi-0.dtd"
   xmlns="http://www.w3.org/2000/svg"
   xmlns:svg="http://www.w3.org/2000/svg"><sodipodi:namedview
     id="namedview1"
     pagecolor="#ffffff"
     bordercolor="#000000"
     borderopacity="0.25"
     inkscape:showpageshadow="2"
     inkscape:pageopacity="0.0"
     inkscape:pagecheckerboard="0"
     inkscape:deskcolor="#d1d1d1"
     inkscape:document-units="px"
     inkscape:zoom="1.0174481"
     inkscape:cx="456.53435"
     inkscape:cy="641.31036"
     inkscape:window-width="1920"
     inkscape:window-height="991"
     inkscape:window-x="-9"
     inkscape:window-y="-9"
     inkscape:window-maximized="1"
     inkscape:current-layer="g486" /><defs
     id="defs1"><inkscape:path-effect
       effect="spiro"
       id="path-effect499"
       is_visible="true"
       lpeversion="1" /><inkscape:path-effect
       effect="spiro"
       id="path-effect497"
       is_visible="true"
       lpeversion="1" /><inkscape:path-effect
       effect="spiro"
       id="path-effect495"
       is_visible="true"
       lpeversion="1" /><inkscape:path-effect
       effect="spiro"
       id="path-effect493"
       is_visible="true"
       lpeversion="1" /><inkscape:path-effect
       effect="spiro"
       id="path-effect491"
       is_visible="true"
       lpeversion="1" /><inkscape:path-effect
       effect="spiro"
       id="path-effect489"
       is_visible="true"
       lpeversion="1" /><inkscape:path-effect
       effect="spiro"
       id="path-effect487"
       is_visible="true"
       lpeversion="1" /><inkscape:path-effect
       effect="spiro"
       id="path-effect466"
       is_visible="true"
       lpeversion="1" /><inkscape:path-effect
       effect="spiro"
       id="path-effect465"
       is_visible="true"
       lpeversion="1" /><inkscape:path-effect
       effect="spiro"
       id="path-effect464"
       is_visible="true"
       lpeversion="1" /><inkscape:path-effect
       effect="spiro"
       id="path-effect461"
       is_visible="true"
       lpeversion="1" /><inkscape:path-effect
       effect="spiro"
       id="path-effect460"
       is_visible="true"
       lpeversion="1" /><inkscape:path-effect
       effect="spiro"
       id="path-effect459"
       is_visible="true"
       lpeversion="1" /><inkscape:path-effect
       effect="spiro"
       id="path-effect458"
       is_visible="true"
       lpeversion="1" /><inkscape:path-effect
       effect="spiro"
       id="path-effect457"
       is_visible="true"
       lpeversion="1" /><inkscape:path-effect
       effect="spiro"
       id="path-effect456"
       is_visible="true"
       lpeversion="1" /><inkscape:path-effect
       effect="spiro"
       id="path-effect446"
       is_visible="true"
       lpeversion="1" /><inkscape:path-effect
       effect="spiro"
       id="path-effect445"
       is_visible="true"
       lpeversion="1" /></defs><g
     inkscape:groupmode="layer"
     id="layer3"
     inkscape:label="Capa 2"
     style="display:none;fill:#00ff00"><rect
       style="font-variation-settings:normal;opacity:1;vector-effect:none;fill:#00ff00;fill-opacity:1;fill-rule:evenodd;stroke-width:0.150258;stroke-linecap:butt;stroke-linejoin:miter;stroke-miterlimit:4;stroke-dasharray:none;stroke-dashoffset:0;stroke-opacity:1;-inkscape-stroke:none;stop-color:#000000;stop-opacity:1"
       id="rect464"
       width="1080"
       height="1080"
       x="0"
       y="0"
       ry="42.393822"
       rx="42.393822" /></g><g
     inkscape:label="logo"
     inkscape:groupmode="layer"
     id="layer1"
     style="display:inline"><path
       id="path448"
       style="display:inline;opacity:1;fill:#ffd101;fill-opacity:1;fill-rule:evenodd;stroke:#ffffff;stroke-width:0.150258;-inkscape-stroke:none"
       d="m 432.10212,102.77571 c -9.38473,-0.23816 -18.7914,-0.22826 -28.20169,0.0451 -10.60012,0.30795 -21.20479,0.9511 -31.79039,1.95515 -338.738838,32.1297 -308.762463,394.88784 -186.70207,363.05103 0,0 286.57748,-130.72412 409.23212,-92.25082 0,0 83.11935,-9.93244 93.86607,-7.54653 0.48796,-6.77951 7.12118,-71.96314 8.35505,-78.67018 4.56688,-24.16707 11.53622,-47.92135 23.00205,-69.79612 2.45934,-3.85223 4.7766,-7.80089 7.37769,-11.55887 3.76079,-5.43349 8.20393,-10.3519 12.75228,-15.17012 C 661.9997,146.90354 548.76895,105.73622 432.10212,102.77567 Z"
       sodipodi:nodetypes="ssccscccscss" /><path
       id="path451"
       style="display:inline;opacity:1;fill:#f9a101;fill-opacity:1;fill-rule:evenodd;stroke:#ffffff;stroke-width:0.150258;-inkscape-stroke:none"
       d="m 498.86532,340.047 c -261.44,-2.39203 -313.45751,126.14025 -313.45751,126.14025 0,0 13.06636,-1.0858 28.41612,-2.40658 4.7856,-3.52283 -4.98858,4.6983 4.15295,-3.11754 9.46456,-7.43271 17.84229,-16.16165 26.53432,-24.46628 9.07832,-8.76815 18.67047,-16.9649 28.69259,-24.62713 1.37406,-1.18115 15.46096,-9.89199 16.69644,-7.91092 2.8001,4.48996 4.88044,9.35338 6.77958,14.31245 0.80725,-0.40352 1.61379,-0.81573 2.42067,-1.2188 17.48561,-8.07326 34.54523,-17.19256 52.40562,-24.42962 13.61467,-6.21446 17.21212,-7.15364 24.34216,7.69932 19.88578,-3.10794 39.7825,-6.15113 59.73535,-8.79963 4.91251,-0.55157 19.44037,-2.69385 23.15157,-0.36676 4.86593,3.05113 7.81469,5.77097 9.42032,8.38207 4.89827,-0.66298 9.79617,-1.31878 14.72152,-1.81409 11.29069,-0.91627 22.51923,-1.85703 33.85558,-1.83103 0.74313,10e-4 5.91084,0.005 10.2921,0.19186 2.59238,-0.39079 5.17998,-0.81319 7.77268,-1.20187 7.36072,-0.9126 17.25054,-2.20057 24.66097,-2.87773 2.89265,-0.26433 5.79603,-0.75412 8.69524,-0.57555 4.8649,0.29964 11.1525,-1.5393 14.54661,1.87335 6.50564,-6.08677 12.89836,-12.30123 19.84501,-17.89833 1.35538,-1.16029 2.74486,-2.28075 4.10217,-3.43916 1.66362,-1.56978 3.3348,-3.1317 4.99933,-4.70028 4.48553,-4.25618 9.05535,-8.42024 13.64098,-12.56606 -0.28471,-0.45072 -0.28044,-0.71096 0.38653,-0.35548 1.25329,-1.1322 2.51346,-2.25631 3.76926,-3.38556 -1.87536,-0.27027 -3.31079,-0.5458 -5.25045,-0.81536 -46.35529,-6.44208 -87.97913,-9.45383 -125.32771,-9.79554 z m -52.92191,51.10217 c -1.20596,0.17304 -2.81729,1.04409 -4.1981,3.09215 1.06113,-0.0972 2.1345,-0.13521 3.15986,-0.41192 3.28869,-0.88745 3.33607,-2.29345 2.08494,-2.6379 -0.28865,-0.0794 -0.64471,-0.0999 -1.0467,-0.0423 z" /><path
       style="display:inline;opacity:1;fill:#ffffff;fill-opacity:1;fill-rule:evenodd;stroke:#ffffff;stroke-width:0.104021;-inkscape-stroke:none"
       d="m 823.27641,484.39431 c -4.449,-2.75234 -8.49769,-6.15059 -11.97965,-10.05506 -2.23557,-2.50684 -4.23349,-5.21441 -6.20707,-7.93232 -6.619,-9.11532 -13.0049,-18.39711 -19.42814,-27.65142 -2.63765,-3.8002 -5.31952,-7.63852 -8.81404,-10.66954 -5.18073,-4.49358 -11.78031,-6.91351 -18.06258,-9.66403 -3.36908,-1.47506 -6.70318,-3.07509 -10.24167,-4.07788 -2.22001,-0.62914 -4.49972,-1.01699 -6.76571,-1.4524 -6.80832,-1.30824 -13.5294,-3.05441 -20.3592,-4.24547 -8.66218,-1.51061 -17.71511,-2.09774 -26.13177,0.44689 -2.10705,0.63703 -4.15333,1.46469 -6.14501,2.40205 -6.81401,3.20693 -13.10599,7.82044 -17.3798,14.02122 -2.21647,3.21582 -3.85002,6.78857 -5.71051,10.22264 -2.59603,4.7917 -5.67681,9.4032 -7.2002,14.6357 -1.63461,5.61451 -1.37195,11.58926 -2.23455,17.37291 -0.31252,2.09542 -0.77307,4.16603 -1.11727,6.25648 -1.4973,9.09375 -0.75012,18.5352 2.04834,27.31625 1.16957,3.6699 2.68938,7.22196 4.40702,10.66954 4.85368,9.74211 11.28166,18.65594 15.82803,28.5452 1.06106,2.30801 2.01674,4.66332 2.91733,7.03854 3.94017,10.39187 6.84106,21.25412 7.57262,32.34378 0.73696,11.17158 -0.78734,22.58987 -5.27601,32.84653 -2.40076,5.48576 -5.63665,10.6124 -9.62096,15.08259 -4.69826,5.27121 -10.36483,9.56869 -15.8901,13.96536 -3.51381,2.79607 -6.9889,5.64865 -10.67617,8.21163 -8.21618,5.71098 -17.46309,9.97015 -25.0145,16.53499 -1.74159,1.51405 -3.3811,3.14128 -5.0898,4.69236 -1.96328,1.78218 -4.0225,3.46832 -5.81884,5.41866 -1.79633,1.95034 -3.34002,4.20454 -4.05041,6.75914 -0.75982,2.73238 -0.5133,5.70854 0.54549,8.33955 1.05878,2.63101 2.90582,4.91689 5.16502,6.63132 1.6093,1.22124 3.41295,2.1558 5.15187,3.1841 1.59678,0.94425 3.15054,1.97439 4.84152,2.73721 4.43881,2.0024 9.47311,2.02881 14.33833,2.23446 6.91194,0.29217 13.84172,1.01502 20.73163,0.39103 5.8292,-0.52793 11.52355,-2.01121 17.19359,-3.46341 7.10905,-1.82076 14.22835,-3.60126 21.35233,-5.3627 5.8527,-1.44711 11.72318,-2.88578 17.3798,-4.97167 3.93409,-1.4507 7.75837,-3.21387 11.35894,-5.3627 3.69492,-2.20514 7.14676,-4.81083 10.92445,-6.87096 3.87608,-2.11378 8.05043,-3.6287 11.97965,-5.642 7.10843,-3.6423 13.32435,-8.88092 18.62122,-14.85915 12.53758,-14.15034 19.81961,-32.0492 27.49733,-49.32565 1.50472,-3.38594 3.03555,-6.76796 4.22081,-10.27851 1.31178,-3.8853 2.19106,-7.90052 3.10353,-11.89849 1.80207,-7.89578 3.74453,-15.76379 6.08293,-23.51767 1.55185,-5.14575 3.27756,-10.23955 4.71738,-15.41776 6.22298,-22.38049 6.97498,-46.2612 2.17247,-68.98888"
       id="path464"
       inkscape:path-effect="#path-effect464"
       inkscape:original-d="m 823.27641,484.39431 c -6.82587,0.67763 -8.79491,-5.27814 -11.97965,-10.05506 -2.22331,-3.33483 -3.63871,-4.35766 -6.20707,-7.93232 -6.5737,-9.14931 -12.57685,-18.69616 -19.42814,-27.65142 -3.12637,-4.08644 -4.56353,-7.21742 -8.81404,-10.66954 -6.44309,-5.23283 -10.35976,-6.43812 -18.06258,-9.66403 -3.42588,-1.43474 -6.6369,-3.0657 -10.24167,-4.07788 -2.22073,-0.62356 -4.52444,-0.90725 -6.76571,-1.4524 -6.76411,-1.64526 -13.4212,-3.42595 -20.3592,-4.24547 -5.07222,-0.59913 -20.91115,-0.91457 -26.13177,0.44689 -2.12809,0.55498 -4.1418,1.49434 -6.14501,2.40205 -5.44612,2.46779 -14.08225,9.14797 -17.3798,14.02122 -2.17424,3.21318 -3.84259,6.81952 -5.71051,10.22264 -2.64201,4.81344 -5.2412,9.46962 -7.2002,14.6357 -2.03771,5.37365 -1.63198,11.74672 -2.23455,17.37291 -0.5577,5.20738 -0.26235,-1.03017 -1.11727,6.25648 -1.06858,9.10776 -0.20469,18.45866 2.04834,27.31625 0.96236,3.78345 2.84342,7.12732 4.40702,10.66954 4.43365,10.04413 10.34145,19.08122 15.82803,28.5452 1.30671,2.25399 2.00378,4.60252 2.91733,7.03854 4.27076,11.38825 7.57262,19.97566 7.57262,32.34378 0,11.06209 -1.77778,22.30663 -5.27601,32.84653 -1.83755,5.5364 -5.92424,10.69711 -9.62096,15.08259 -4.70392,5.58034 -10.11797,9.62624 -15.8901,13.96536 -3.58786,2.69712 -6.95357,5.69898 -10.67617,8.21163 -8.27922,5.58826 -17.00481,10.52796 -25.0145,16.53499 -1.82146,1.36604 -3.37636,3.19317 -5.0898,4.69236 -3.94035,3.44767 -8.08218,7.08486 -9.86925,12.1778 -2.00086,5.70225 1.84467,11.20965 5.71051,14.97087 1.52677,1.48545 3.35296,2.11628 5.15187,3.1841 1.64651,0.97735 3.03286,2.02693 4.84152,2.73721 4.48224,1.76023 9.61995,1.76264 14.33833,2.23446 6.82473,0.68244 13.88099,1.25417 20.73163,0.39103 5.83893,-0.73568 11.46835,-2.15098 17.19359,-3.46341 7.1536,-1.63987 14.21823,-3.63781 21.35233,-5.3627 5.86034,-1.41692 11.78266,-2.67018 17.3798,-4.97167 3.40595,-1.40049 8.19736,-3.46583 11.35894,-5.3627 3.69243,-2.21537 7.02173,-4.97971 10.92445,-6.87096 3.97527,-1.9264 8.09768,-3.51544 11.97965,-5.642 6.99508,-3.83194 13.20282,-9.03284 18.62122,-14.85915 12.93277,-13.90638 20.50456,-31.98087 27.49733,-49.32565 1.38103,-3.4255 3.03866,-6.77546 4.22081,-10.27851 1.3113,-3.8858 1.98312,-7.95685 3.10353,-11.89849 2.22416,-7.82466 4.13431,-15.62605 6.08293,-23.51767 1.29562,-5.24703 3.37453,-10.19268 4.71738,-15.41776 5.79959,-22.56634 7.3218,-46.17432 2.17247,-68.98888"
       transform="matrix(1.4445047,0,0,1.4445047,-260.95542,-335.62853)" /><path
       id="path453"
       style="display:inline;opacity:1;fill:#f9a101;fill-opacity:1;fill-rule:evenodd;stroke:#ffffff;stroke-width:0.150258;-inkscape-stroke:none"
       d="m 463.34237,237.23042 c -184.92689,-0.005 -176.99133,85.7844 -176.99133,85.7844 0,0 23.02813,0.38974 53.81908,0.78715 0.95981,-3.57413 3.17849,-7.33326 6.87551,-10.89022 -2.60798,-7.14501 -1.0688,-9.54222 10.00713,-12.61684 3.22517,0.31155 0.3024,0.24056 3.80876,-0.39499 4.77751,-0.86596 9.57305,-1.78485 14.24192,-3.2332 8.33067,-2.14126 16.61926,-4.44652 24.88385,-6.83037 2.14149,-0.6993 4.27862,-1.41079 6.42127,-2.1075 3.39396,-1.16425 6.85089,-2.08223 10.32877,-2.87208 0.32145,-0.073 0.6436,-0.28235 0.9536,-0.38934 0.60842,-0.35455 1.22324,-0.72835 1.52068,-0.26238 2.40882,3.77355 4.59682,6.92478 6.61878,9.71373 5.19733,-0.25467 10.40021,-0.41953 15.60177,-0.46271 0.54634,0.005 1.09052,-0.0316 1.63635,-0.0367 8.3572,-1.4303 16.70259,-2.93193 25.04467,-4.43226 7.96299,-1.19515 15.8382,-3.05556 23.81458,-4.16423 9.8722,-1.37218 -1.93806,0.65702 6.17863,-0.79279 10.41658,0.53104 12.39017,-8.17095 17.7093,6.75984 1.88475,0.0491 3.76961,0.14502 5.63976,0.30187 3.01816,0.2608 6.04695,0.56505 9.04227,1.0044 2.96776,0.43616 5.9488,0.77646 8.91812,1.20186 2.14597,0.19951 4.29232,0.42701 6.43256,0.68559 4.62997,0.55799 9.21711,1.39676 13.80744,2.20906 4.30503,0.63479 8.59068,1.38447 12.89897,2.0003 4.58134,0.44173 9.12098,1.1931 13.66074,1.93541 4.47401,0.82346 8.97549,1.49273 13.4463,2.33322 3.6998,0.7126 7.39358,1.46877 11.06231,2.32757 4.28429,1.12931 8.62776,1.99604 12.9413,2.99339 2.8597,0.66614 5.74368,1.20997 8.63035,1.74356 4.19197,0.74877 8.34298,1.69157 12.50116,2.60407 2.85403,0.61617 5.68891,1.3279 8.55136,1.90438 2.26193,0.52917 4.5487,0.93762 6.82189,1.41346 3.3395,0.83539 6.71184,1.51186 10.09179,2.15548 2.03544,0.39969 4.08781,0.67297 6.15326,0.84921 1.52026,0.0434 3.04122,0.0893 4.56203,0.12408 0.10534,-0.21294 -0.0572,0.0225 0.1975,-0.44578 1.15119,-2.46789 2.12142,-5.01179 3.11188,-7.54696 1.2426,-3.4565 2.1389,-7.00493 2.92005,-10.58833 0.72498,-4.07479 1.29517,-8.17929 1.72664,-12.29521 0.5836,-7.138 1.92093,-14.17993 3.30939,-21.19642 0.0186,-0.0983 0.0485,-0.19259 0.0678,-0.2906 -7.62141,-1.65092 -15.10951,-3.2897 -23.85973,-5.0332 -86.42819,-17.22099 -153.32884,-23.94846 -205.10837,-23.95 z m 301.56291,49.00313 c 0.0482,0.13694 0.10733,0.26914 0.15517,0.40627 1.15755,5.19531 3.0885,10.37319 3.45327,15.72874 0.084,1.23306 0.0647,2.87054 0.0169,4.5169 15.79231,-5.25403 16.88154,-12.00581 -3.62537,-20.65191 z m -40.4038,27.80672 c -0.0762,0.30637 -0.16783,0.60811 -0.24545,0.91411 0.24581,-0.028 0.45797,-0.0592 0.70248,-0.0874 -0.1417,-0.2819 -0.3232,-0.5401 -0.45703,-0.82664 z" /><ellipse
       style="opacity:1;fill:#ffd101;fill-opacity:1;fill-rule:evenodd;stroke:#ffffff;stroke-width:0.150258;-inkscape-stroke:none"
       id="path455"
       cx="771.66846"
       cy="294.509"
       rx="75.661858"
       ry="79.108101" /><path
       style="opacity:1;fill:#cccccc;fill-opacity:1;fill-rule:evenodd;stroke:#ffffff;stroke-width:0.104021;-inkscape-stroke:none"
       d="m 607.4115,728.76201 c 1.25075,1.49885 3.16466,2.42282 5.11626,2.46993 1.95159,0.0471 3.90786,-0.78344 5.22947,-2.2202 1.32161,-1.43676 1.98621,-3.45544 1.7766,-5.39632 -0.2096,-1.94087 -1.28987,-3.77112 -2.88776,-4.89259 -1.20421,-0.84517 -2.63979,-1.28018 -4.03794,-1.738 -2.97984,-0.97575 -6.03645,-2.20034 -8.07587,-4.582 -1.46697,-1.71315 -2.29199,-3.93008 -2.47843,-6.17777 -0.18644,-2.2477 0.24441,-4.5229 1.07393,-6.62023 1.45784,-3.68594 4.13126,-6.82658 7.34268,-9.14999 3.21142,-2.32341 6.94559,-3.85935 10.79024,-4.82374 7.68931,-1.92879 15.73203,-1.61505 23.65096,-1.98427 32.81745,-1.5301 65.03381,-15.57499 87.93233,-39.13309 22.89852,-23.5581 36.07156,-56.4866 34.96143,-89.32094 -0.46374,-13.7162 -3.28205,-27.68291 0.0636,-40.9929 1.67283,-6.65499 4.97552,-13.04108 10.16101,-17.5353 2.59274,-2.24711 5.63364,-3.99543 8.92011,-4.98078 3.28648,-0.98534 6.81853,-1.196 10.17422,-0.48103 3.76856,0.80294 7.24115,2.75273 10.12334,5.31003 2.88219,2.55729 5.196,5.70782 7.08179,9.06797 4.22928,7.53585 6.34495,16.1545 6.77404,24.78535 0.42908,8.63086 -0.78665,17.28692 -2.90461,25.66487 -4.23594,16.7559 -12.00713,32.37366 -17.91443,48.6158 -3.74046,10.28441 -6.74017,20.83976 -10.88488,30.96801 -7.85016,19.18311 -19.87652,36.7397 -35.46363,50.40201 -6.14646,5.38745 -12.80931,10.15176 -19.13631,15.326 -7.41457,6.06366 -14.44223,12.74274 -22.82313,17.38 -4.42968,2.451 -9.16595,4.28938 -13.86944,6.162 -11.50832,4.58186 -23.05146,9.45236 -35.28807,11.37601 -10.45782,1.64402 -21.18156,1.08056 -31.60125,-0.79 -8.12753,-1.45907 -16.11282,-3.7094 -23.80626,-6.70883 z"
       id="path458"
       inkscape:path-effect="#path-effect458"
       inkscape:original-d="m 607.4115,728.76201 c 3.07819,-3.34639 7.39905,-5.87931 9.23457,-10.03918 0.59156,-1.34065 -2.72727,-1.08269 -4.03794,-1.738 -2.76832,-1.38411 -5.4862,-2.88701 -8.07587,-4.582 -3.46078,-2.26514 -2.36572,-9.46132 -1.4045,-12.798 3.80082,-13.19378 31.33485,-13.17171 41.78388,-15.958 14.98248,-3.99518 31.61419,-86.80554 122.89376,-128.45403 30.21416,-13.78594 10.12192,-55.1112 29.31894,-63.99001 9.52311,-4.40453 15.55174,5.23747 17.20513,14.378 5.5931,30.92065 -3.82499,69.80076 -14.045,99.06602 -3.5948,10.29378 -6.49879,20.96812 -10.88488,30.96801 -7.9181,18.05255 -21.21897,36.78109 -35.46363,50.40201 -5.92247,5.66314 -12.96183,9.94844 -19.13631,15.326 -6.93379,6.03886 -14.75833,12.91352 -22.82313,17.38 -4.46885,2.47496 -9.26383,4.02271 -13.86944,6.162 -10.70984,4.9747 -23.34728,10.5163 -35.28807,11.37601 -9.58493,0.69008 -22.28398,1.87802 -31.60125,-0.79 -11.23921,-3.21838 -9.7911,-8.69149 -23.80626,-6.70883 z"
       transform="matrix(1.4445047,0,0,1.4445047,-260.95542,-335.62853)"
       sodipodi:nodetypes="cssssssssssssssssc" /><path
       style="opacity:1;fill:#ffffff;fill-opacity:1;fill-rule:evenodd;stroke:#ffffff;stroke-width:0.104021;-inkscape-stroke:none"
       d="m 437.2351,939.95326 c 1.77613,-0.63491 3.60532,-1.12129 5.46223,-1.4524 8.89984,-1.58696 17.98571,0.42294 26.93869,1.67584 15.64775,2.18978 31.5495,2.06085 47.29789,0.78206 5.53371,-0.44934 11.08055,-1.04431 16.45491,-2.43718 5.37436,-1.39287 10.59839,-3.61511 14.95288,-7.05926 7.33918,-5.80487 11.70931,-14.70247 13.83428,-23.81535 2.12496,-9.11289 2.22136,-18.55728 2.42825,-27.91235 0.11368,-5.14049 0.25043,-10.38547 -1.24141,-15.30604 -2.22252,-7.33059 -7.76449,-13.08507 -12.04172,-19.43978 -2.68716,-3.99234 -4.90538,-8.28384 -7.57263,-12.28952 -5.06177,-7.60178 -11.66619,-14.06646 -16.88324,-21.56252 -2.22684,-3.19961 -4.19112,-6.57334 -6.33121,-9.83161 -3.70938,-5.64752 -7.97276,-10.97246 -13.05219,-15.42818 -5.07942,-4.45572 -11.00332,-8.03003 -17.48661,-9.93292 -3.53109,-1.0364 -7.20373,-1.57449 -10.67616,-2.79307 -3.61694,-1.26929 -6.97138,-3.26167 -10.67617,-4.24547 -3.57505,-0.94935 -7.38987,-0.9157 -10.98062,-0.0276 -3.59076,0.8881 -6.95617,2.61868 -9.85001,4.92257 -5.78769,4.60779 -9.58082,11.40795 -11.44615,18.56683 -2.26588,8.69616 -1.84716,17.8341 -1.48969,26.8135 0.61357,15.41244 1.00003,30.83296 1.36555,46.25328 0.2851,12.02742 0.55743,24.06349 0.12414,36.08649 -0.37714,10.46489 -1.28909,20.91049 -2.73111,31.28241"
       id="path466"
       inkscape:path-effect="#path-effect466"
       inkscape:original-d="m 437.2351,939.95326 c 1.82075,-0.48414 3.604,-1.14182 5.46223,-1.4524 5.68953,-0.95093 21.0309,1.45079 26.93869,1.67584 15.77811,0.60105 31.51874,0.51157 47.29789,0.78206 12.80968,0.21959 22.12192,1.68902 31.40779,-9.49644 13.19574,-15.89516 16.26253,-31.82829 16.26253,-51.7277 0,-5.1197 0.27857,-10.33174 -1.24141,-15.30604 -2.22958,-7.29651 -7.93443,-13.16285 -12.04172,-19.43978 -2.64511,-4.04237 -4.67369,-8.40644 -7.57263,-12.28952 -5.46506,-7.32035 -11.42351,-14.25858 -16.88324,-21.56252 -2.31756,-3.1004 -3.64926,-6.95966 -6.33121,-9.83161 -4.29406,-4.59826 -24.37697,-23.29191 -30.5388,-25.3611 -3.50581,-1.17728 -7.17368,-1.64685 -10.67616,-2.79307 -3.51559,-1.15051 -7.01622,-3.70927 -10.67617,-4.24547 -14.97509,-2.19394 -28.38354,9.83603 -32.27678,23.4618 -2.45844,8.60421 -1.48969,17.99003 -1.48969,26.8135 0,15.55375 0.38941,30.73322 1.36555,46.25328 0.73713,11.71981 0.67886,24.35481 0.12414,36.08649 -0.49153,10.39558 -2.73111,20.90317 -2.73111,31.28241"
       transform="matrix(1.4445047,0,0,1.4445047,-260.95542,-335.62853)" /><path
       style="opacity:1;fill:#4d4d4d;fill-opacity:1;fill-rule:evenodd;stroke:#ffffff;stroke-width:0.103285;-inkscape-stroke:none"
       d="m 1170.7916,439.45935 c -2.5506,4.50511 -6.6332,8.12439 -11.4116,10.11657 -3.2587,1.35858 -6.8986,1.96849 -10.3581,1.264 -3.0905,-0.62934 -5.939,-2.30131 -8.0946,-4.60362 -2.1556,-2.3023 -3.625,-5.21604 -4.3277,-8.29069 -1.4053,-6.1493 0.2815,-12.73686 3.6441,-18.07369 3.8121,-6.05031 9.9661,-10.79757 17.0106,-12.02783 3.5222,-0.61513 7.2117,-0.34376 10.5644,0.89885 3.3526,1.24261 6.3532,3.46794 8.4153,6.38898 2.6988,3.82306 3.6945,8.80363 2.6728,13.37044 -1.0216,4.56681 -4.0446,8.64835 -8.1152,10.95699 z"
       id="path456"
       inkscape:path-effect="#path-effect456"
       inkscape:original-d="m 1170.7916,439.45935 c -4.3208,2.73726 -6.9178,7.60634 -11.4116,10.11657 -3.2247,1.80132 -6.81,1.264 -10.3581,1.264 -17.0321,0 -17.494,-20.98486 -8.7782,-30.968 5.0693,-5.80635 31.2472,-16.47877 35.9903,-4.74 4.1109,10.17406 -1.5785,15.75653 -5.4424,24.32743 z"
       transform="matrix(1.4651558,0,0,1.4445047,-1464.8798,-365.17006)" /><path
       id="path457"
       style="opacity:1;fill:#4d4d4d;fill-opacity:1;fill-rule:evenodd;stroke:#ffffff;stroke-width:0.104021;-inkscape-stroke:none"
       transform="matrix(1.4445047,0,0,1.4445047,-260.95542,-335.62853)"
       d="m 588.14517,645.90534 c -2.23116,-0.12459 -4.50691,0.0629 -6.71726,0.38129 -19.24935,2.77239 -36.7983,15.45537 -45.47001,32.86296 L 448.00739,797.2291 c 3.22587,-3.70031 6.62293,-7.25231 10.17596,-10.63973 3.45818,-3.297 7.26913,-6.54664 11.92017,-7.64075 2.32553,-0.54707 4.82076,-0.51145 7.05259,0.34073 2.23185,0.85218 4.17179,2.56325 5.07987,4.77293 0.84426,2.05441 0.764,4.39665 0.192,6.54285 -0.572,2.1462 -1.60647,4.13601 -2.65013,6.09665 -5.17365,9.71928 -10.8102,19.25484 -17.82212,27.74389 -7.01194,8.48903 -15.47028,15.93719 -25.36688,20.76295 -0.5597,0.27292 -1.13629,0.54536 -1.57386,0.98839 -0.21878,0.22152 -0.39823,0.48467 -0.50028,0.77882 -0.10204,0.29414 -0.12318,0.62023 -0.0324,0.91808 0.0685,0.22495 0.19968,0.42919 0.36913,0.59222 0.16945,0.16303 0.37642,0.28513 0.59898,0.36101 0.44513,0.15177 0.93987,0.11786 1.38456,-0.0351 0.44469,-0.15306 0.84385,-0.41861 1.20202,-0.72338 0.35818,-0.30477 0.67967,-0.64961 1.01003,-0.98433 2.62478,-2.65952 5.8018,-4.693 8.77787,-6.95254 5.86992,-4.45662 11.02136,-9.84856 17.18258,-13.8929 3.08062,-2.02217 6.41944,-3.70017 9.98531,-4.62961 3.56588,-0.92945 7.37305,-1.08808 10.92908,-0.12169 2.04141,0.55477 3.99734,1.48522 5.61801,2.84483 1.72841,1.45 3.04651,3.37137 3.84133,5.48279 0.79484,2.11144 1.07166,4.40784 0.87211,6.65508 -0.39908,4.49447 -2.69965,8.69824 -5.91547,11.86338 -3.2158,3.16515 -7.29883,5.34897 -11.56862,6.80786 -2.06957,0.70713 -4.18766,1.24636 -6.32922,1.69014 0.31952,1.49568 -0.77337,3.33887 -3.67232,4.12392 -0.45804,0.12404 -0.91786,0.24418 -1.38861,0.31099 -1.22214,0.19659 -2.44992,0.35998 -3.66827,0.5814 -1.73644,0.26922 -3.47875,0.47591 -5.22454,0.67335 -1.02853,0.14789 -2.0205,0.42524 -2.99492,0.78693 -1.83504,0.60872 -3.69559,1.11575 -5.55445,1.64551 -2.23763,0.67411 -4.46561,1.36772 -6.61316,2.29858 -1.03466,0.41374 -0.84666,0.3343 -1.81588,0.73826 -1.12677,0.4696 -2.27344,1.09576 -3.52765,1.10061 -1.97946,0.007 -3.32152,-0.63056 -4.03468,-1.49949 -3.79825,3.11363 -6.80277,7.28802 -7.79625,12.08243 -0.54348,2.62275 -0.48784,5.38008 0.26095,7.95174 0.74879,2.57167 2.20175,4.94912 4.21723,6.71322 2.90152,2.53964 6.87401,3.70309 10.72491,3.50466 1.53033,-0.0789 3.02692,-0.4102 4.48899,-0.8613 -0.85255,-1.22243 -0.0481,-3.09912 2.68529,-3.37756 0.0754,-0.008 0.11491,-0.01 0.13521,-0.008 0.49216,-0.33804 0.90653,-0.78573 1.39132,-1.13307 1.01776,-0.8197 2.06538,-1.60193 3.07604,-2.42973 l 0.001,-10e-4 c 0.62418,-0.97956 1.31334,-1.91421 2.04574,-2.81779 0.24509,-0.30981 1.22502,-1.38924 1.72259,-1.37779 0.0332,7.6e-4 0.0648,0.005 0.0933,0.0162 0.73817,0.28505 1.44036,0.69404 2.06467,1.19256 2.66333,-3.49335 4.84989,-7.42732 6.88763,-11.33201 2.13633,-4.09359 4.212,-8.23622 6.80921,-12.05403 2.59722,-3.81783 5.75628,-7.33098 9.67433,-9.77439 3.91804,-2.44339 8.65659,-3.75085 13.21685,-3.02601 2.28011,0.36242 4.48737,1.22964 6.35625,2.58523 1.86888,1.35558 3.3903,3.20351 4.28618,5.33136 1.08193,2.56973 1.22798,5.42718 1.22907,8.2154 0.003,7.41861 -0.93846,14.92108 -3.67909,21.81489 -2.74063,6.89383 -7.38266,13.16625 -13.7009,17.05413 -1.53044,0.94174 -3.14641,1.73762 -4.6864,2.66365 -1.53999,0.92604 -3.02051,1.99814 -4.15908,3.38838 -1.13858,1.39024 -1.91708,3.13156 -1.89836,4.92843 0.009,0.89844 0.21975,1.79841 0.6436,2.59064 0.42385,0.79223 1.06433,1.473 1.84833,1.91188 0.70296,0.39351 1.51056,0.58868 2.31616,0.59087 0.8056,0.002 1.60766,-0.1852 2.3432,-0.5138 1.47108,-0.65721 2.65004,-1.86026 3.50466,-3.22613 1.70925,-2.73174 2.19003,-6.03887 3.42354,-9.01585 1.81684,-4.38482 5.21104,-7.92368 8.8225,-11.00345 3.61145,-3.07975 7.52451,-5.82488 10.83984,-9.22137 4.91631,-5.03665 8.36622,-11.35061 13.26417,-16.40511 2.44898,-2.52726 5.28474,-4.74254 8.53856,-6.08313 3.2538,-1.34059 6.95678,-1.75755 10.32469,-0.7369 3.17778,0.96304 5.91359,3.17215 7.75433,5.93575 1.84074,2.7636 2.81706,6.05297 3.05847,9.36469 0.4828,6.62346 -1.87202,13.11912 -4.66748,19.14314 -1.08328,2.33438 -2.24689,4.65829 -2.85294,7.1594 -0.60606,2.50112 -0.60801,5.24621 0.57059,7.53394 0.73823,1.433 1.90912,2.6206 3.26669,3.48979 1.35755,0.8692 2.89762,1.43088 4.47412,1.76721 3.153,0.67263 6.41672,0.46241 9.64052,0.43132 5.51222,-0.0532 11.24074,0.38865 16.32669,-1.73746 3.20278,-1.33887 5.95575,-3.6496 8.03693,-6.42792 2.08118,-2.77831 3.50838,-6.01262 4.41057,-9.36469 1.80439,-6.70414 1.53318,-13.76937 1.24664,-20.70617 -0.29808,-7.21647 -0.59628,-14.46464 0.17578,-21.64588 1.65644,-15.40714 8.17273,-29.95862 10.00694,-45.34561 1.19795,-10.04942 0.70175,-20.21532 0.70175,-30.33588 v -56.24765 c 0,-17.91038 -0.18028,-35.82377 -0.87752,-53.72057 -0.20634,-5.29646 -0.46245,-10.67187 -2.13768,-15.70066 -0.83762,-2.51441 -2.03152,-4.92519 -3.66692,-7.01068 -1.63538,-2.08549 -3.7215,-3.8403 -6.13315,-4.93925 -2.03214,-0.926 -4.21974,-1.36138 -6.45091,-1.48596 z" /><path
       style="opacity:1;fill:#4d4d4d;fill-opacity:1;fill-rule:evenodd;stroke:#ffffff;stroke-width:0.104021;-inkscape-stroke:none"
       d="m 437.5723,525.80479 c -0.007,-1.57999 -0.007,-3.16001 0,-4.74 0.0107,-2.29698 0.0477,-4.65224 0.87781,-6.794 0.59745,-1.54146 1.59262,-2.91567 2.81033,-4.03381 1.21771,-1.11814 2.65426,-1.98502 4.17719,-2.62823 3.04587,-1.28642 6.39018,-1.67675 9.69092,-1.86996 8.85019,-0.51806 17.82767,0.30144 26.28125,2.97187 8.45358,2.67043 16.37359,7.23434 22.52513,13.61813 5.99804,6.2245 10.20033,14.0478 12.77283,22.30026 2.57249,8.25247 3.56117,16.93762 3.64175,25.58137 0.16116,17.2875 -3.249,34.40216 -4.30076,51.65839 -0.87856,14.41456 -0.10854,28.87348 0.70225,43.29201 0.73504,13.07157 1.47383,26.43293 -2.10675,39.02601 -0.95554,3.36068 -2.22173,6.65327 -4.03794,9.638 -4.72109,7.75854 -12.69714,12.81646 -19.663,18.64401 -5.21048,4.35903 -9.97568,9.28523 -13.86944,14.852 -5.19001,7.41996 -8.78465,15.89779 -14.34074,23.04775 -3.48503,4.48478 -7.8057,8.45263 -13.01044,10.72625 -2.60237,1.13681 -5.40687,1.83603 -8.24494,1.93604 -2.83808,0.10002 -5.70892,-0.40755 -8.29451,-1.58203 -4.04579,-1.83777 -7.25848,-5.26019 -9.2871,-9.21373 -2.02863,-3.95354 -2.932,-8.41484 -3.11246,-12.8548 -0.36092,-8.87991 2.06886,-17.60965 3.09474,-26.43748 2.42181,-20.8399 -3.00079,-41.75209 -3.51125,-62.72602 -0.50506,-20.75189 3.79779,-41.27198 7.0225,-61.77801 2.52925,-16.08359 4.40399,-32.27009 5.618,-48.50601 z"
       id="path459"
       inkscape:path-effect="#path-effect459"
       inkscape:original-d="m 437.5723,525.80479 c -1.50071,0.49425 -0.2477,-3.17953 0,-4.74 0.35823,-2.25675 0.0325,-4.63846 0.87781,-6.794 2.27597,-5.80349 11.13679,-7.70078 16.67844,-8.532 17.12056,-2.56798 39.74285,-0.17686 48.80638,16.59 15.34915,28.39481 10.10904,68.26673 12.11382,99.54002 0.92413,14.41596 0.70225,28.84799 0.70225,43.29201 0,12.91457 0.90773,26.36569 -2.10675,39.02601 -0.81689,3.4308 -3.11516,6.3161 -4.03794,9.638 -1.94991,7.0194 -14.35089,14.23104 -19.663,18.64401 -5.4614,4.53697 -9.47123,9.40943 -13.86944,14.852 -3.9952,4.94386 -9.68702,18.85957 -14.34074,23.04775 -4.59982,4.13967 -24.04717,13.99335 -29.54989,11.08026 -7.66289,-4.05667 -8.6419,-39.85529 -9.30482,-48.50601 -1.5295,-19.95918 -4.57974,-43.01312 -3.51125,-62.72602 1.11548,-20.57967 4.40893,-41.39291 7.0225,-61.77801 2.06357,-16.0952 1.21512,-32.65625 5.618,-48.50601 z"
       sodipodi:nodetypes="cssssssssssssssscc"
       transform="matrix(1.4445047,0,0,1.4445047,-260.95542,-335.62853)" /><path
       id="path460"
       style="display:inline;opacity:1;fill:#ffffff;fill-opacity:1;fill-rule:evenodd;stroke:#ffffff;stroke-width:0.150258;-inkscape-stroke:none"
       d="m 469.27539,37.771484 c -1.7597,0.901375 -4.06449,1.446942 -6.95508,1.376954 -1.61749,-0.03916 1.23132,-0.04231 -0.61328,3.943359 -0.20666,0.446516 -1.20452,-0.317507 -1.47461,0.09375 -0.92683,1.411222 -0.6082,3.492217 -1.7168,4.765625 -1.30141,1.494918 -5.38105,-2.246502 -5.49218,2.279297 -7.97027,0.333869 -15.94508,0.418661 -23.91992,0.595703 -8.6639,0.257408 -17.32384,0.629908 -25.9629,1.359375 -7.63456,0.648189 -15.26484,1.358177 -22.85937,2.386719 -7.20436,0.962409 -14.40664,1.960326 -21.5625,3.242187 -7.17577,1.361313 -14.31381,2.896037 -21.41992,4.585938 -4.29054,1.021935 -8.57493,2.07562 -12.84375,3.185547 -0.17441,0.491586 -0.2755,0.950428 -0.4961,1.460937 -1.46617,3.393101 1.21694,-3.286543 -0.0508,4.728516 -0.12238,0.773705 -1.03836,1.222101 -1.29297,1.96289 -0.41987,1.221633 -0.18521,2.624874 -0.69335,3.8125 -0.39404,0.920912 -1.41459,1.445234 -1.92579,2.306641 -0.74416,1.253952 -1.20436,2.656438 -1.80664,3.984375 l -2.61718,2.585937 c -1.05224,1.341295 -1.96338,2.805525 -3.15625,4.023438 -1.01905,1.040438 -2.3415,1.737437 -3.43164,2.703125 -1.60418,1.421033 -2.94261,3.144282 -4.64258,4.449219 -1.45172,1.114375 -3.18902,1.796134 -4.7461,2.757814 -1.99175,1.23014 -3.93103,2.54269 -5.89648,3.81445 -1.91603,0.86463 -3.85281,1.68445 -5.74805,2.59375 -2.03774,0.97767 -3.98858,2.13714 -6.04883,3.06641 -1.86707,0.84215 -3.83101,1.45207 -5.7207,2.24218 -1.89812,0.79365 -3.73939,1.72172 -5.64062,2.50782 -3.46372,1.43215 -6.98887,2.70952 -10.45704,4.13086 -9.96874,3.90985 -19.66529,8.4654 -29.39843,12.91797 -9.16442,4.22626 -18.41129,8.27168 -27.54493,12.56445 -7.32741,3.38874 -14.3976,7.28975 -21.41796,11.26562 -3.55477,2.03891 -7.0921,4.10908 -10.63477,6.16993 -0.88367,1.18123 -1.7146,2.40173 -2.62305,3.56445 -2.81962,3.43377 -5.79723,6.7198 -8.77734,10.01367 -2.89337,3.36084 -5.71217,6.78451 -8.47461,10.25391 -3.32092,4.2126 -6.52301,8.51273 -9.7168,12.82226 -3.28965,4.40019 -6.64084,8.75358 -9.9375,13.14844 -2.59377,3.55003 -5.15997,7.12904 -8.01562,10.47656 -0.23383,0.26544 -0.45497,0.54174 -0.68945,0.80664 -0.75984,2.79647 -1.45672,5.60957 -2.0254,8.45118 -0.84924,4.33215 -1.42739,8.71416 -1.75781,13.11523 -0.3705,5.1291 -0.43961,10.27376 -0.59375,15.41211 -0.1488,4.77078 -0.36307,9.53765 -0.50586,14.30859 -0.13607,6.54061 -0.67091,13.06454 -1.3125,19.57227 -0.68275,6.61518 -1.57292,13.20679 -2.43164,19.80078 -1.02598,7.86225 -1.87469,15.7471 -2.85351,23.61523 -1.14539,9.5002 -2.80477,18.92475 -4.3125,28.3711 -2.14972,13.7285 1.00808,-3.36387 -3.06641,10.08789 -0.46609,1.53877 0.0124,3.32324 -0.67773,4.77539 -0.7619,1.60308 -2.70343,2.42752 -3.500004,4.01367 -3.837496,7.64131 4.806544,0.78488 -5.146484,6.76172 L 132.666,493.14648 c 3.29861,-7.79971 4.4319,-16.51906 4.2871,-25.09765 -0.2896,-17.15719 29.95066,-7.5649 28.38282,-24.64063 -2.5047,-27.27912 -10.3384,-61.09655 2.5332,-98.40234 17.42304,-50.49733 16.73174,-81.45474 40.50977,-129.67969 31.9201,-64.73818 149.5256,-100.47074 230.08984,-94.0664 151.03979,12.00665 210.66564,64.14007 279.26367,86.35742 5.27542,1.70859 11.09177,0.99378 16.50391,-0.25586 5.41213,-1.24966 10.6075,-3.84917 14.73828,-7.83985 3.98467,-3.84953 6.90566,-8.92932 8.55469,-14.43164 1.64905,-5.50229 2.04624,-11.41046 1.3789,-17.15039 -1.33473,-11.4798 -6.84982,-22.03446 -14.01953,-30.60742 C 728.69063,117.96384 705.07947,108.43972 682.7617,98.527344 651.5806,84.678367 621.06567,68.75906 588.75389,58.392578 570.56304,52.556478 551.91696,48.521474 533.1699,45.371094 511.98872,41.811685 490.65624,39.466965 469.27537,37.771484 Z" /><path
       style="display:inline;opacity:1;fill:#ffffff;fill-opacity:1;fill-rule:evenodd;stroke:#ffffff;stroke-width:0.104021;-inkscape-stroke:none"
       d="m 581.63524,293.89937 c 0.0435,-0.62868 -0.16176,-1.27121 -0.56167,-1.75823 -0.39991,-0.48703 -0.99022,-0.81338 -1.61535,-0.89304 -0.62512,-0.0797 -1.27841,0.0882 -1.78768,0.45942 -0.50926,0.37118 -0.86909,0.9417 -0.98463,1.5612 -0.0991,0.53127 -0.0218,1.08766 0.17648,1.5904 0.1983,0.50274 0.51389,0.9539 0.88555,1.34625 0.74331,0.78471 1.69584,1.33124 2.60014,1.92329 4.38082,2.86814 7.80902,6.9553 11.85551,10.27851 3.6464,2.99463 7.76956,5.34816 11.91758,7.59716 3.18273,1.72563 6.39529,3.39978 9.68303,4.9158 15.0958,6.96089 31.56656,10.49825 46.80133,17.14947 3.26812,1.4268 6.47342,2.99445 9.7451,4.41305 6.8349,2.96361 13.96423,5.27928 20.54541,8.77025 5.20639,2.76172 10.00535,6.22563 15.08319,9.21714 3.10899,1.8316 6.3202,3.48471 9.43475,5.30684 12.49387,7.30938 23.22931,17.20815 34.57339,26.19901 5.55132,4.39975 11.26321,8.59236 16.88324,12.904 8.75521,6.71693 17.41913,13.86451 23.58687,23.01491 3.57564,5.30478 6.23938,11.18091 9.81983,16.48245 1.79022,2.65076 3.81617,5.16125 6.214,7.2783 2.39783,2.11705 5.18104,3.83591 8.23583,4.78445 1.91744,0.59538 3.94847,0.88349 5.94392,0.66164 1.99545,-0.22185 3.95471,-0.97264 5.47709,-2.28162 1.483,-1.27512 2.50604,-3.04096 3.03059,-4.92512 0.52455,-1.88416 0.56693,-3.88278 0.28415,-5.81804 -0.56556,-3.87052 -2.38205,-7.42757 -4.12166,-10.93108 -4.82798,-9.72336 -9.26858,-19.65455 -14.71076,-29.04795 -4.29683,-7.41648 -9.21195,-14.48137 -14.77283,-21.00391 -4.32852,-5.07706 -9.03819,-9.81555 -13.46935,-14.80328 -4.91917,-5.53704 -9.496,-11.38216 -14.64869,-16.70257 -5.18842,-5.35731 -10.92866,-10.14939 -16.26253,-15.3619 -2.37008,-2.31615 -4.65958,-4.71499 -7.07606,-6.98268 -5.51507,-5.1755 -11.65305,-9.63303 -17.69016,-14.18881 -2.92671,-2.20858 -5.84228,-4.44935 -9.00025,-6.31234 -6.07494,-3.5838 -12.88566,-5.6802 -19.49021,-8.15577 -9.09398,-3.40868 -17.917,-7.58919 -27.24905,-10.27851 -4.93879,-1.42327 -9.98852,-2.41925 -15.02112,-3.46341 -19.08846,-3.96044 -38.30882,-8.6652 -57.78784,-7.87646 -3.28052,0.13283 -6.60124,0.43187 -9.68303,1.56412 -4.37322,1.60672 -7.9748,4.77749 -11.29687,8.04405 -1.07295,1.05502 -2.14346,2.14691 -2.85973,3.47026 -0.35814,0.66167 -0.62352,1.37805 -0.73468,2.12218 -0.11116,0.74412 -0.0648,1.51691 0.18052,2.22816 0.34686,1.00556 1.0986,1.86495 2.04908,2.34251 0.95047,0.47757 2.08869,0.56777 3.10252,0.24589 1.01383,-0.32188 1.89156,-1.05213 2.39249,-1.9905 0.50093,-0.93837 0.61926,-2.074 0.32256,-3.09549"
       id="path461"
       inkscape:path-effect="#path-effect461"
       inkscape:original-d="m 581.63524,293.89937 c -1.64978,-0.21022 -4.4651,-2.22171 -4.94933,-0.63065 -0.59059,1.94054 2.43857,3.24213 3.66217,4.85994 3.61074,4.77401 6.77998,6.99742 11.85551,10.27851 3.95382,2.55596 7.80053,5.30346 11.91758,7.59716 3.16667,1.76422 6.49259,3.20408 9.68303,4.9158 14.70525,7.88962 31.09934,11.79327 46.80133,17.14947 3.43386,1.17134 6.47483,2.90559 9.7451,4.41305 6.75353,3.11309 13.8237,5.56229 20.54541,8.77025 5.39043,2.5726 9.98697,6.1773 15.08319,9.21714 3.09197,1.84432 6.44125,3.29885 9.43475,5.30684 12.02664,8.06724 23.40854,17.00619 34.57339,26.19901 5.48269,4.5143 11.57634,8.18105 16.88324,12.904 8.16662,7.268 16.41607,14.73764 23.58687,23.01491 8.18574,9.44882 15.59681,19.52038 24.26966,28.5452 3.58785,3.73347 8.58,3.39894 11.42101,-1.61998 3.40185,-6.0097 0.92602,-15.55143 -0.80692,-21.67424 -3.72623,-13.16551 -6.80598,-18.57237 -14.71076,-29.04795 -5.15624,-6.83317 -9.4754,-14.26365 -14.77283,-21.00391 -4.13558,-5.26196 -8.98414,-9.85655 -13.46935,-14.80328 -4.96734,-5.47847 -9.47653,-11.41085 -14.64869,-16.70257 -5.21945,-5.34011 -10.83936,-10.24121 -16.26253,-15.3619 -2.41002,-2.2756 -4.62589,-4.74612 -7.07606,-6.98268 -5.5627,-5.07775 -11.59836,-9.76751 -17.69016,-14.18881 -2.8948,-2.10098 -5.87741,-4.62607 -9.00025,-6.31234 -6.13862,-3.31472 -13.02453,-5.54149 -19.49021,-8.15577 -9.01561,-3.6453 -17.98429,-7.29034 -27.24905,-10.27851 -4.90085,-1.58067 -10.05944,-2.11417 -15.02112,-3.46341 -18.7707,-5.10435 -38.23471,-9.30879 -57.78784,-7.87646 -3.3368,0.24443 -6.46837,0.63952 -9.68303,1.56412 -6.52321,1.87619 -8.18992,2.07046 -11.29687,8.04405 -0.35132,0.67545 -4.50077,8.02839 -3.41389,7.8206 2.70226,-0.51662 5.24443,-1.66506 7.86665,-2.49759"
       transform="matrix(1.4445047,0,0,1.4445047,-260.95542,-335.62853)" /><path
       style="display:inline;opacity:1;fill:#4d4d4d;fill-opacity:1;fill-rule:evenodd;stroke:#ffffff;stroke-width:0.104021;-inkscape-stroke:none"
       d="m 594.33646,628.21582 c 3.95416,-1.45875 7.68567,-3.51933 11.02642,-6.0889 3.57212,-2.74753 6.67216,-6.0489 9.93131,-9.16128 4.47613,-4.27455 9.29362,-8.23215 13.22107,-13.01572 4.03891,-4.91932 7.0361,-10.58929 10.24166,-16.08809 6.37813,-10.94099 13.80366,-21.64799 16.51082,-34.01962 0.43381,-1.98248 0.75608,-4.03357 1.73798,-5.8096 1.23286,-2.22997 3.47795,-3.84863 5.96044,-4.42308 2.48249,-0.57446 5.166,-0.12566 7.38476,1.12726 1.72519,0.9742 3.16878,2.40891 4.27355,4.05354 1.10478,1.64464 1.87941,3.49613 2.41454,5.40374 1.07026,3.81522 1.19211,7.81996 1.50525,11.77007 0.56677,7.1495 1.78183,14.29483 1.30348,21.45079 -0.34946,5.22783 -1.60592,10.37993 -3.53803,15.25018 -1.91997,4.83963 -4.4932,9.38875 -7.07606,13.9095 -4.38336,7.67215 -8.92312,15.44495 -15.45561,21.39493 -2.58556,2.35501 -5.44736,4.38882 -8.06919,6.70338 -1.62503,1.43459 -3.1651,2.98264 -4.96566,4.18961 -2.18442,1.46428 -4.68016,2.37923 -7.07606,3.46341 -1.6367,0.74063 -3.2364,1.56527 -4.90359,2.23445 -4.20046,1.68599 -8.94234,2.34352 -13.28314,1.06137 -2.14916,-0.6348 -4.13404,-1.7185 -6.20707,-2.56962 -2.49064,-1.02258 -5.17596,-1.74491 -7.27137,-3.43553 -1.04771,-0.84531 -1.92549,-1.93674 -2.36179,-3.21027 -0.43629,-1.27353 -0.39663,-2.7371 0.26048,-3.91202 0.44426,-0.79434 1.1592,-1.43403 1.99787,-1.78756"
       id="path465"
       inkscape:path-effect="#path-effect465"
       inkscape:original-d="m 594.33646,628.21582 c 3.42887,-2.43621 7.60606,-3.53163 11.02642,-6.0889 3.6481,-2.72755 6.48841,-6.20624 9.93131,-9.16128 4.90688,-4.21157 9.0473,-7.95924 13.22107,-13.01572 3.99621,-4.84137 6.92707,-10.78008 10.24166,-16.08809 6.80163,-10.89218 12.82827,-21.67722 16.51082,-34.01962 0.17135,-0.57431 1.67363,-5.66772 1.73798,-5.8096 2.208,-4.86844 9.18255,-6.51933 13.3452,-3.29582 5.53648,4.28738 7.05442,14.67282 8.19334,21.22735 1.16882,6.7266 2.31885,14.56033 1.30348,21.45079 -0.83258,5.65012 -1.64258,10.1668 -3.53803,15.25018 -1.81908,4.8786 -4.51498,9.39824 -7.07606,13.9095 -4.39587,7.74319 -9.28406,14.91506 -15.45561,21.39493 -2.41564,2.53633 -5.41946,4.43093 -8.06919,6.70338 -2.10199,1.80269 -2.74996,2.65992 -4.96566,4.18961 -2.19121,1.51277 -4.66386,2.39243 -7.07606,3.46341 -1.6604,0.73718 -3.16409,1.63957 -4.90359,2.23445 -3.89378,1.33162 -9.22812,1.45709 -13.28314,1.06137 -2.14166,-0.209 -4.38777,-1.5379 -6.20707,-2.56962 -4.52826,-2.56798 -8.66164,-4.99058 -9.37268,-10.55782 -0.31595,-2.4738 -0.39334,-1.78756 1.99787,-1.78756"
       transform="matrix(1.4445047,0,0,1.4445047,-260.95542,-335.62853)" /><path
       id="path462"
       style="display:inline;opacity:1;fill:#ffffff;fill-opacity:1;fill-rule:evenodd;stroke:#ffffff;stroke-width:0.150258;-inkscape-stroke:none"
       d="m 912.90494,514.12956 c -0.75226,-0.0766 -1.81669,-0.004 -3.78055,0.0903 -1.08084,2.50739 -1.57595,5.21772 -2.55609,7.76703 -0.93611,2.50537 -1.75511,5.03131 -2.65483,7.54698 -0.88548,2.61654 -1.65011,5.27519 -2.49121,7.90528 -1.06062,3.85522 -2.12279,7.71565 -2.76488,11.66889 -0.7759,3.71671 -1.88008,7.38117 -3.28116,10.90996 -1.03218,3.55074 -1.83155,7.16522 -2.95673,10.68425 -1.4706,3.60484 -2.18205,7.51083 -3.98085,11.00872 -1.57893,3.44456 -2.95476,6.9969 -4.97112,10.21874 -1.81622,3.67846 -3.98725,7.1183 -6.07708,10.64192 -2.3492,3.82705 -5.03355,7.41628 -7.45105,11.19774 -2.33604,3.52439 -4.78338,6.95424 -7.38897,10.28364 -1.83206,2.78287 -3.91619,5.37693 -5.73006,8.17329 -1.75846,2.43676 -3.66982,4.7549 -5.4959,7.14071 -1.61066,2.15456 -3.161,4.3488 -4.79338,6.48616 -1.53205,2.30717 -3.27112,4.45878 -4.90623,6.69213 -1.7735,2.26062 -3.53344,4.51132 -5.54103,6.57644 -2.05421,2.16088 -3.97822,4.43934 -6.18147,6.45513 -2.11722,2.29021 -4.39631,4.41983 -6.79087,6.41845 -2.3841,1.82471 -4.68195,3.75993 -7.04478,5.61157 -3.06875,2.32892 -6.12908,4.65913 -9.36106,6.757 -3.41084,2.16188 -6.79215,4.38832 -10.49523,6.03758 -5.85887,2.75639 -11.98378,4.88123 -18.29612,6.34511 -6.0611,1.37044 -12.1145,2.76174 -18.12119,4.35889 -5.27973,1.43039 -10.58938,2.71533 -15.867,4.15579 -4.55088,1.09226 -8.99643,2.60054 -13.56762,3.62535 -5.29993,1.21752 -10.55516,2.61773 -15.78798,4.09654 -5.38846,1.36731 -10.77106,2.73202 -16.12371,4.23476 -4.93017,1.48691 -9.82151,3.10023 -14.71308,4.70876 -5.1264,1.90624 -10.28667,3.74 -15.33375,5.84855 -4.23805,1.5884 -8.5223,3.03034 -12.79176,4.52817 -3.04677,0.82379 -6.03734,1.88895 -9.2059,2.16394 -2.68189,0.74549 -5.3872,1.47587 -8.16767,1.73509 -2.4263,0.24563 -4.83919,0.54505 -7.26766,0.77586 -2.79443,0.24518 -5.25983,1.62917 -7.53568,3.21346 -3.79712,2.87692 -7.79808,5.55651 -11.21466,8.88145 -2.85826,3.07641 -5.10677,6.5902 -7.23099,10.20464 -2.69868,3.88316 -4.40084,8.41313 -7.2592,12.23033 l 62.73721,36.33267 c 1.55115,-2.56208 2.89377,-5.33881 4.79621,-7.67393 4.00247,-4.91284 -0.61773,1.564 2.99057,-3.66769 2.34983,-3.06085 4.79497,-6.03709 7.42002,-8.86452 3.08753,-2.85146 6.74145,-4.98029 10.6504,-6.48334 2.05594,-0.79316 4.21665,-0.11267 6.3084,-0.40909 2.51242,-0.26795 4.99228,-0.64426 7.43979,-1.26676 2.78377,-0.8518 5.66994,-1.3365 8.54288,-1.77742 3.04827,-1.19298 6.2318,-1.99278 9.24539,-3.26989 4.17055,-1.60525 8.22922,-3.47166 12.37422,-5.1404 5.04024,-2.016 10.1224,-3.86491 15.33657,-5.38304 4.89,-1.47338 9.75308,-3.02689 14.69333,-4.32505 5.27378,-1.45626 10.56856,-2.82182 15.85005,-4.2517 5.29393,-1.39707 10.66991,-2.44504 15.96573,-3.83131 4.67183,-1.16931 9.39704,-2.15441 13.97389,-3.66487 5.19114,-1.43533 10.38616,-2.83269 15.61306,-4.13038 5.91204,-1.49404 11.81958,-2.94476 17.63593,-4.7821 0.91054,-0.27847 1.79536,-0.62548 2.69998,-0.91975 2.49796,-2.07066 4.99429,-4.1418 7.48774,-6.21814 8.24406,-6.58785 16.22948,-13.48629 24.02617,-20.59548 0.0644,-0.0577 0.12466,-0.11988 0.18902,-0.17774 9.48514,-11.68433 19.31323,-23.08995 28.74621,-34.81763 2.01559,-2.47524 3.97662,-4.99372 5.95012,-7.50184 11.07347,-18.17713 22.22076,-36.30709 33.39007,-54.42567 7.39185,-11.6636 14.44556,-23.53326 21.25847,-35.5427 2.56819,-4.57774 5.05065,-9.20185 7.52158,-13.83283 0.0703,-0.14157 0.14673,-0.27541 0.22008,-0.41474 0.61468,-1.95076 1.25475,-3.89452 1.93258,-5.82598 0.56907,-1.7642 1.12174,-3.54185 1.59685,-5.33788 -0.59844,-0.42132 -1.46005,-0.84937 -2.54199,-1.25832 -6.50244,-1.54688 -9.32845,-2.34352 -8.88991,-2.35578 0.59757,-0.0168 5.48244,1.06789 8.88991,2.35578 0.54766,0.1303 2.09339,0.45763 2.69152,0.59813 0.20573,-0.84178 0.44984,-1.67428 0.57273,-2.53353 -4.93041,-6.61416 -0.70347,-1.46955 -16.99833,-10.49522 l -31.11045,-17.4441 c -12.341,-6.2536 -11.77073,-7.81673 -14.0275,-8.04634 z" /><path
       id="path425"
       style="display:inline;fill:#000000;stroke-width:1"
       d="m 592.0586,34.373996 -123.51643,0.0029 c -43.81811,0.283132 -87.64484,-0.433091 -131.46121,0.09592 V 61.483928 C 69.010667,131.22906 21.555096,385.15949 171.46228,572.50003 182.78773,538.52414 256.25285,448.36026 337.08096,424.29442 V 734.96159 1045.626 H 482.25367 627.4264 V 937.40389 829.18172 c 46.18534,-5.70724 91.47889,-15.2126 134.61541,-33.5537 94.28283,-40.46163 152.63425,-105.85017 198.79432,-192.7398 13.28621,-28.1741 22.27976,-57.77645 28.31455,-88.26432 l 3.68743,-18.62903 C 1024.7098,288.24161 872.44637,33.321321 592.0586,34.373996 Z m 21.3657,57.402132 c 123.96918,8.638062 175.35752,27.693312 277.5685,151.611572 8.05677,7.42016 41.42667,77.97343 15.56885,44.44914 C 827.52878,192.71805 715.18789,134.382 608.64784,95.545389 c -8.48936,-3.300135 -0.13173,-3.609847 4.77646,-3.769261 z m 106.70995,98.133132 c -42.50819,35.31448 -52.29946,50.53397 -55.57111,112.80962 -177.27579,-56.71196 -311.35971,-12.90939 -378.21195,20.29645 14.99578,-29.82526 19.59305,-67.17869 -1.51503,-94.58402 -2.79556,-4.67655 -46.5412,-51.52411 -89.51134,-4.00626 -39.39557,56.67971 -55.44828,91.14741 -47.38644,229.62263 -25.25503,-31.10844 -36.43311,-133.94104 13.40172,-218.26125 14.29844,-26.27034 35.3337,-47.56887 56.56986,-68.28106 24.61306,-21.31454 52.61223,-36.61611 85.22578,-47.51913 179.86137,-61.074408 407.70873,63.01978 416.99851,69.92302 z m 92.91099,55.85642 c 26.45851,23.3323 32.16793,43.9618 29.86346,75.797 l 9.6714,9.93379 c 47.41271,48.69897 42.907,118.36153 26.77703,168.31865 -15.2976,47.34339 -69.84533,165.75918 -233.87434,171.71831 -9.72898,-0.18051 -15.33207,-3.97116 -13.72279,-14.07263 4.00037,-12.60503 6.75847,-10.17869 15.1955,-14.73564 32.4345,-12.1334 86.48812,-42.09186 106.22753,-110.61746 l 2.97647,-11.55603 c 4.87338,-40.86042 -6.84442,-83.79756 -43.14612,-108.12344 l -6.13914,-3.86235 c 3.09008,-48.74666 -9.19986,-100.54614 9.50495,-147.04607 21.79224,-54.34169 61.45445,-38.46165 96.66605,-15.75413 z m -580.25921,-7.32717 c 9.68514,10.58616 -17.25206,41.63106 -31.48851,29.00589 -7.08733,-13.27393 20.08515,-32.53638 31.48851,-29.00589 z m 505.86723,67.17228 c -0.17421,37.08907 73.16237,44.43535 75.47818,-2.85515 -2.51025,-50.30416 -75.22721,-49.83798 -75.47818,2.85515 z m -139.3947,6.27456 c 20.3724,3.21971 40.04275,9.42322 59.94694,14.69615 v 0.92819 0.9254 c -24.78901,10.99627 -45.37953,28.45054 -64.56541,47.14108 -144.50953,-30.51783 -310.06016,-29.08051 -407.06536,92.11255 l -1.08339,0.0678 -1.08337,0.0705 v -1.63919 -1.63918 C 227.92971,357.99229 384.40753,270.78956 599.25856,311.88541 Z m -194.5465,108.36266 0.26062,167.3882 0.17746,174.70537 c -0.053,5.84369 -4.76412,10.76317 -9.61464,15.2354 -3.56337,3.69446 -7.907,3.26009 -7.907,3.26009 l -1.02811,-186.06015 -0.14224,-174.75626 c 0.21005,-2.78112 -0.27631,-9.1625 9.19801,-9.57467 5.53185,-0.0459 9.3665,2.59033 9.0559,9.80202 z m 130.26604,-7.48996 c 53.44835,7.09861 95.1047,17.44184 132.17218,31.3277 -3.7506,42.67444 -28.72563,97.40813 -132.17218,97.40813 v -64.36791 z m -87.81725,6.04978 c 9.17953,-0.12482 8.04879,6.37493 8.36949,14.74037 l -0.10438,128.00511 -0.10153,128.00229 c 0.12015,8.19773 -0.49046,18.50316 -2.02568,22.2262 -3.2364,6.71314 -9.81693,11.04986 -15.47625,15.35867 -0.596,-49.62447 -0.38477,-101.4656 -0.22711,-151.37063 l 0.45988,-145.56771 c 0.20203,-5.62398 1.01955,-11.17957 9.10558,-11.3943 z m 259.08697,51.18307 c 14.81869,26.63994 14.3463,64.15394 -44.87549,108.63973 -21.79304,12.40187 -17.48286,0.71932 -10.83379,-8.87579 40.94139,-36.42073 51.40677,-60.91985 55.70928,-99.76394 z m 203.5514,87.42591 c 5.58672,-6.11126 12.66726,-6.11126 14.09202,0.25722 -6.46448,47.94403 -98.3833,189.6725 -273.17944,214.5602 -8.92271,1.48846 -14.46514,-1.03719 -17.71576,-4.58606 -1.01282,-10.90487 0.49549,-8.49277 18.63682,-13.7173 83.06272,-18.74316 188.62504,-55.80419 249.83751,-183.15191 z m -315.59643,66.41384 c -0.37181,155.49072 -2.13689,208.05336 -42.20937,288.17868 -30.70823,61.40151 -36.58268,84.20522 -63.69596,71.85425 -9.48384,-10.03242 -7.96052,-16.20838 -1.92719,-28.73971 9.03617,-18.23125 31.23199,-35.95162 48.54017,-78.86603 l 4.82443,-10.47266 7.71624,-18.77856 c 0.10622,-4.60548 11.39064,-19.69328 6.57818,-26.37635 -0.12163,-0.16972 -0.25297,-0.33105 -0.3837,-0.49374 -0.10194,-0.12365 -0.2014,-0.24955 -0.30751,-0.36958 -0.0575,-0.0604 -0.10603,-0.12148 -0.16647,-0.17776 -0.17376,-0.16473 -0.32557,-0.34966 -0.48526,-0.52757 -0.0667,-0.0526 -0.12669,-0.11238 -0.19467,-0.16363 -0.0963,-0.0742 -0.20373,-0.13 -0.3047,-0.1975 -0.11903,-0.094 -0.2456,-0.17323 -0.37806,-0.24545 -0.0802,-0.0261 -0.16217,-0.0628 -0.24263,-0.0932 -0.10099,-0.0411 -0.20504,-0.0655 -0.31034,-0.0903 -0.12451,-0.0293 -0.27347,-0.0657 -0.37805,-0.0874 -0.10174,0.005 -0.21843,8.3e-4 -0.32445,-0.0115 -0.16206,-0.0115 -0.32575,-0.0154 -0.48809,-0.0198 -0.19743,0.007 -0.39464,0.0147 -0.59247,0.0145 -8.57174,-0.0296 -10.33454,10.89974 -13.65219,17.6448 l -9.77297,19.86194 c -16.62555,30.79714 -39.42064,57.29268 -62.57357,83.35525 -15.24933,14.47213 -32.6376,25.9043 -50.05829,37.50352 -4.33184,2.45265 -8.03678,3.64924 -12.05541,5.47332 -6.2207,1.38292 -9.50801,0.55082 -14.00211,-3.19372 -3.0598,-3.36845 -3.18903,-4.29908 -4.12474,-7.57802 -1.36084,-6.68986 1.24843,-9.24738 5.67081,-13.71432 60.02677,-50.4561 88.89281,-89.29183 120.07164,-134.25429 2.43024,-3.70449 2.7877,-8.12357 -1.13405,-11.29767 -3.81405,-1.93429 -6.80902,-2.00411 -10.16526,1.2087 -18.01668,25.19184 -63.95404,79.41104 -87.64926,91.00661 l -5.77802,2.70845 c -8.40005,1.86796 -13.75469,1.49784 -16.63657,-4.57304 -1.46155,-8.47422 -2.05544,-14.4061 2.92224,-21.14869 37.63447,-39.26042 59.19305,-63.09837 90.38868,-102.05485 l 5.1658,-7.31844 c 3.50376,-4.24511 6.06933,-9.00545 8.64727,-13.81872 6.44459,-10.49155 -6.71159,-11.02682 -11.66607,-7.03068 -5.95861,8.0926 -35.10153,46.20941 -96.72087,106.07488 -0.15888,-13.68293 -0.15686,-27.36607 -0.15686,-41.0496 11.80285,-14.40871 17.42512,-21.03382 38.13548,-46.92665 13.11831,-14.60341 22.86296,-26.77913 34.7584,-39.75774 34.57615,-27.6638 86.17734,-105.45773 135.11582,-105.45773 z m -18.90551,295.4012 0.0761,0.72225 0.0734,0.72225 c 0.91721,20.22754 0.61661,17.88587 2.5362,34.75307 2.10995,12.53186 -1.00082,21.70893 -11.06185,17.80804 -6.77682,-3.51632 -9.79903,-5.17781 -8.35143,-14.09833 2.41556,-14.45259 6.40843,-19.1773 10.50087,-28.35124 l 3.11189,-5.77802 z"
       sodipodi:nodetypes="ccccccccccccccccccccccccccccccccccccccccccccccccccccccccccccccccccccccccccccccccccccccccccccccccccccccccccccccccscccccccccccccccccccccccccccccccccccccc" /></g><g
     inkscape:label="letras"
     inkscape:groupmode="layer"
     id="g486"
     style="display:none;stroke-width:3.1415"
     transform="matrix(0.31831897,0,0,0.31831897,59.509601,23.362559)"><path
       id="path473"
       style="display:inline;opacity:1;fill:#ffd101;fill-opacity:1;fill-rule:evenodd;stroke:#ffffff;stroke-width:0.472036;-inkscape-stroke:none"
       d="m 432.10212,102.77571 c -9.38473,-0.23816 -18.7914,-0.22826 -28.20169,0.0451 -10.60012,0.30795 -21.20479,0.9511 -31.79039,1.95515 -338.738838,32.1297 -308.762463,394.88784 -186.70207,363.05103 0,0 286.57748,-130.72412 409.23212,-92.25082 0,0 83.11935,-9.93244 93.86607,-7.54653 0.48796,-6.77951 7.12118,-71.96314 8.35505,-78.67018 4.56688,-24.16707 11.53622,-47.92135 23.00205,-69.79612 2.45934,-3.85223 4.7766,-7.80089 7.37769,-11.55887 3.76079,-5.43349 8.20393,-10.3519 12.75228,-15.17012 C 661.9997,146.90354 548.76895,105.73622 432.10212,102.77567 Z"
       sodipodi:nodetypes="ssccscccscss" /><path
       id="path474"
       style="display:inline;opacity:1;fill:#f9a101;fill-opacity:1;fill-rule:evenodd;stroke:#ffffff;stroke-width:0.472036;-inkscape-stroke:none"
       d="m 498.86532,340.047 c -261.44,-2.39203 -313.45751,126.14025 -313.45751,126.14025 0,0 13.06636,-1.0858 28.41612,-2.40658 4.7856,-3.52283 -4.98858,4.6983 4.15295,-3.11754 9.46456,-7.43271 17.84229,-16.16165 26.53432,-24.46628 9.07832,-8.76815 18.67047,-16.9649 28.69259,-24.62713 1.37406,-1.18115 15.46096,-9.89199 16.69644,-7.91092 2.8001,4.48996 4.88044,9.35338 6.77958,14.31245 0.80725,-0.40352 1.61379,-0.81573 2.42067,-1.2188 17.48561,-8.07326 34.54523,-17.19256 52.40562,-24.42962 13.61467,-6.21446 17.21212,-7.15364 24.34216,7.69932 19.88578,-3.10794 39.7825,-6.15113 59.73535,-8.79963 4.91251,-0.55157 19.44037,-2.69385 23.15157,-0.36676 4.86593,3.05113 7.81469,5.77097 9.42032,8.38207 4.89827,-0.66298 9.79617,-1.31878 14.72152,-1.81409 11.29069,-0.91627 22.51923,-1.85703 33.85558,-1.83103 0.74313,10e-4 5.91084,0.005 10.2921,0.19186 2.59238,-0.39079 5.17998,-0.81319 7.77268,-1.20187 7.36072,-0.9126 17.25054,-2.20057 24.66097,-2.87773 2.89265,-0.26433 5.79603,-0.75412 8.69524,-0.57555 4.8649,0.29964 11.1525,-1.5393 14.54661,1.87335 6.50564,-6.08677 12.89836,-12.30123 19.84501,-17.89833 1.35538,-1.16029 2.74486,-2.28075 4.10217,-3.43916 1.66362,-1.56978 3.3348,-3.1317 4.99933,-4.70028 4.48553,-4.25618 9.05535,-8.42024 13.64098,-12.56606 -0.28471,-0.45072 -0.28044,-0.71096 0.38653,-0.35548 1.25329,-1.1322 2.51346,-2.25631 3.76926,-3.38556 -1.87536,-0.27027 -3.31079,-0.5458 -5.25045,-0.81536 -46.35529,-6.44208 -87.97913,-9.45383 -125.32771,-9.79554 z m -52.92191,51.10217 c -1.20596,0.17304 -2.81729,1.04409 -4.1981,3.09215 1.06113,-0.0972 2.1345,-0.13521 3.15986,-0.41192 3.28869,-0.88745 3.33607,-2.29345 2.08494,-2.6379 -0.28865,-0.0794 -0.64471,-0.0999 -1.0467,-0.0423 z" /><path
       style="display:inline;opacity:1;fill:#ffffff;fill-opacity:1;fill-rule:evenodd;stroke:#ffffff;stroke-width:0.326782;-inkscape-stroke:none"
       d="m 823.27641,484.39431 c -4.449,-2.75234 -8.49769,-6.15059 -11.97965,-10.05506 -2.23557,-2.50684 -4.23349,-5.21441 -6.20707,-7.93232 -6.619,-9.11532 -13.0049,-18.39711 -19.42814,-27.65142 -2.63765,-3.8002 -5.31952,-7.63852 -8.81404,-10.66954 -5.18073,-4.49358 -11.78031,-6.91351 -18.06258,-9.66403 -3.36908,-1.47506 -6.70318,-3.07509 -10.24167,-4.07788 -2.22001,-0.62914 -4.49972,-1.01699 -6.76571,-1.4524 -6.80832,-1.30824 -13.5294,-3.05441 -20.3592,-4.24547 -8.66218,-1.51061 -17.71511,-2.09774 -26.13177,0.44689 -2.10705,0.63703 -4.15333,1.46469 -6.14501,2.40205 -6.81401,3.20693 -13.10599,7.82044 -17.3798,14.02122 -2.21647,3.21582 -3.85002,6.78857 -5.71051,10.22264 -2.59603,4.7917 -5.67681,9.4032 -7.2002,14.6357 -1.63461,5.61451 -1.37195,11.58926 -2.23455,17.37291 -0.31252,2.09542 -0.77307,4.16603 -1.11727,6.25648 -1.4973,9.09375 -0.75012,18.5352 2.04834,27.31625 1.16957,3.6699 2.68938,7.22196 4.40702,10.66954 4.85368,9.74211 11.28166,18.65594 15.82803,28.5452 1.06106,2.30801 2.01674,4.66332 2.91733,7.03854 3.94017,10.39187 6.84106,21.25412 7.57262,32.34378 0.73696,11.17158 -0.78734,22.58987 -5.27601,32.84653 -2.40076,5.48576 -5.63665,10.6124 -9.62096,15.08259 -4.69826,5.27121 -10.36483,9.56869 -15.8901,13.96536 -3.51381,2.79607 -6.9889,5.64865 -10.67617,8.21163 -8.21618,5.71098 -17.46309,9.97015 -25.0145,16.53499 -1.74159,1.51405 -3.3811,3.14128 -5.0898,4.69236 -1.96328,1.78218 -4.0225,3.46832 -5.81884,5.41866 -1.79633,1.95034 -3.34002,4.20454 -4.05041,6.75914 -0.75982,2.73238 -0.5133,5.70854 0.54549,8.33955 1.05878,2.63101 2.90582,4.91689 5.16502,6.63132 1.6093,1.22124 3.41295,2.1558 5.15187,3.1841 1.59678,0.94425 3.15054,1.97439 4.84152,2.73721 4.43881,2.0024 9.47311,2.02881 14.33833,2.23446 6.91194,0.29217 13.84172,1.01502 20.73163,0.39103 5.8292,-0.52793 11.52355,-2.01121 17.19359,-3.46341 7.10905,-1.82076 14.22835,-3.60126 21.35233,-5.3627 5.8527,-1.44711 11.72318,-2.88578 17.3798,-4.97167 3.93409,-1.4507 7.75837,-3.21387 11.35894,-5.3627 3.69492,-2.20514 7.14676,-4.81083 10.92445,-6.87096 3.87608,-2.11378 8.05043,-3.6287 11.97965,-5.642 7.10843,-3.6423 13.32435,-8.88092 18.62122,-14.85915 12.53758,-14.15034 19.81961,-32.0492 27.49733,-49.32565 1.50472,-3.38594 3.03555,-6.76796 4.22081,-10.27851 1.31178,-3.8853 2.19106,-7.90052 3.10353,-11.89849 1.80207,-7.89578 3.74453,-15.76379 6.08293,-23.51767 1.55185,-5.14575 3.27756,-10.23955 4.71738,-15.41776 6.22298,-22.38049 6.97498,-46.2612 2.17247,-68.98888"
       id="path475"
       inkscape:path-effect="#path-effect487"
       inkscape:original-d="m 823.27641,484.39431 c -6.82587,0.67763 -8.79491,-5.27814 -11.97965,-10.05506 -2.22331,-3.33483 -3.63871,-4.35766 -6.20707,-7.93232 -6.5737,-9.14931 -12.57685,-18.69616 -19.42814,-27.65142 -3.12637,-4.08644 -4.56353,-7.21742 -8.81404,-10.66954 -6.44309,-5.23283 -10.35976,-6.43812 -18.06258,-9.66403 -3.42588,-1.43474 -6.6369,-3.0657 -10.24167,-4.07788 -2.22073,-0.62356 -4.52444,-0.90725 -6.76571,-1.4524 -6.76411,-1.64526 -13.4212,-3.42595 -20.3592,-4.24547 -5.07222,-0.59913 -20.91115,-0.91457 -26.13177,0.44689 -2.12809,0.55498 -4.1418,1.49434 -6.14501,2.40205 -5.44612,2.46779 -14.08225,9.14797 -17.3798,14.02122 -2.17424,3.21318 -3.84259,6.81952 -5.71051,10.22264 -2.64201,4.81344 -5.2412,9.46962 -7.2002,14.6357 -2.03771,5.37365 -1.63198,11.74672 -2.23455,17.37291 -0.5577,5.20738 -0.26235,-1.03017 -1.11727,6.25648 -1.06858,9.10776 -0.20469,18.45866 2.04834,27.31625 0.96236,3.78345 2.84342,7.12732 4.40702,10.66954 4.43365,10.04413 10.34145,19.08122 15.82803,28.5452 1.30671,2.25399 2.00378,4.60252 2.91733,7.03854 4.27076,11.38825 7.57262,19.97566 7.57262,32.34378 0,11.06209 -1.77778,22.30663 -5.27601,32.84653 -1.83755,5.5364 -5.92424,10.69711 -9.62096,15.08259 -4.70392,5.58034 -10.11797,9.62624 -15.8901,13.96536 -3.58786,2.69712 -6.95357,5.69898 -10.67617,8.21163 -8.27922,5.58826 -17.00481,10.52796 -25.0145,16.53499 -1.82146,1.36604 -3.37636,3.19317 -5.0898,4.69236 -3.94035,3.44767 -8.08218,7.08486 -9.86925,12.1778 -2.00086,5.70225 1.84467,11.20965 5.71051,14.97087 1.52677,1.48545 3.35296,2.11628 5.15187,3.1841 1.64651,0.97735 3.03286,2.02693 4.84152,2.73721 4.48224,1.76023 9.61995,1.76264 14.33833,2.23446 6.82473,0.68244 13.88099,1.25417 20.73163,0.39103 5.83893,-0.73568 11.46835,-2.15098 17.19359,-3.46341 7.1536,-1.63987 14.21823,-3.63781 21.35233,-5.3627 5.86034,-1.41692 11.78266,-2.67018 17.3798,-4.97167 3.40595,-1.40049 8.19736,-3.46583 11.35894,-5.3627 3.69243,-2.21537 7.02173,-4.97971 10.92445,-6.87096 3.97527,-1.9264 8.09768,-3.51544 11.97965,-5.642 6.99508,-3.83194 13.20282,-9.03284 18.62122,-14.85915 12.93277,-13.90638 20.50456,-31.98087 27.49733,-49.32565 1.38103,-3.4255 3.03866,-6.77546 4.22081,-10.27851 1.3113,-3.8858 1.98312,-7.95685 3.10353,-11.89849 2.22416,-7.82466 4.13431,-15.62605 6.08293,-23.51767 1.29562,-5.24703 3.37453,-10.19268 4.71738,-15.41776 5.79959,-22.56634 7.3218,-46.17432 2.17247,-68.98888"
       transform="matrix(1.4445047,0,0,1.4445047,-260.95542,-335.62853)" /><path
       id="path476"
       style="display:inline;opacity:1;fill:#f9a101;fill-opacity:1;fill-rule:evenodd;stroke:#ffffff;stroke-width:0.472036;-inkscape-stroke:none"
       d="m 463.34237,237.23042 c -184.92689,-0.005 -176.99133,85.7844 -176.99133,85.7844 0,0 23.02813,0.38974 53.81908,0.78715 0.95981,-3.57413 3.17849,-7.33326 6.87551,-10.89022 -2.60798,-7.14501 -1.0688,-9.54222 10.00713,-12.61684 3.22517,0.31155 0.3024,0.24056 3.80876,-0.39499 4.77751,-0.86596 9.57305,-1.78485 14.24192,-3.2332 8.33067,-2.14126 16.61926,-4.44652 24.88385,-6.83037 2.14149,-0.6993 4.27862,-1.41079 6.42127,-2.1075 3.39396,-1.16425 6.85089,-2.08223 10.32877,-2.87208 0.32145,-0.073 0.6436,-0.28235 0.9536,-0.38934 0.60842,-0.35455 1.22324,-0.72835 1.52068,-0.26238 2.40882,3.77355 4.59682,6.92478 6.61878,9.71373 5.19733,-0.25467 10.40021,-0.41953 15.60177,-0.46271 0.54634,0.005 1.09052,-0.0316 1.63635,-0.0367 8.3572,-1.4303 16.70259,-2.93193 25.04467,-4.43226 7.96299,-1.19515 15.8382,-3.05556 23.81458,-4.16423 9.8722,-1.37218 -1.93806,0.65702 6.17863,-0.79279 10.41658,0.53104 12.39017,-8.17095 17.7093,6.75984 1.88475,0.0491 3.76961,0.14502 5.63976,0.30187 3.01816,0.2608 6.04695,0.56505 9.04227,1.0044 2.96776,0.43616 5.9488,0.77646 8.91812,1.20186 2.14597,0.19951 4.29232,0.42701 6.43256,0.68559 4.62997,0.55799 9.21711,1.39676 13.80744,2.20906 4.30503,0.63479 8.59068,1.38447 12.89897,2.0003 4.58134,0.44173 9.12098,1.1931 13.66074,1.93541 4.47401,0.82346 8.97549,1.49273 13.4463,2.33322 3.6998,0.7126 7.39358,1.46877 11.06231,2.32757 4.28429,1.12931 8.62776,1.99604 12.9413,2.99339 2.8597,0.66614 5.74368,1.20997 8.63035,1.74356 4.19197,0.74877 8.34298,1.69157 12.50116,2.60407 2.85403,0.61617 5.68891,1.3279 8.55136,1.90438 2.26193,0.52917 4.5487,0.93762 6.82189,1.41346 3.3395,0.83539 6.71184,1.51186 10.09179,2.15548 2.03544,0.39969 4.08781,0.67297 6.15326,0.84921 1.52026,0.0434 3.04122,0.0893 4.56203,0.12408 0.10534,-0.21294 -0.0572,0.0225 0.1975,-0.44578 1.15119,-2.46789 2.12142,-5.01179 3.11188,-7.54696 1.2426,-3.4565 2.1389,-7.00493 2.92005,-10.58833 0.72498,-4.07479 1.29517,-8.17929 1.72664,-12.29521 0.5836,-7.138 1.92093,-14.17993 3.30939,-21.19642 0.0186,-0.0983 0.0485,-0.19259 0.0678,-0.2906 -7.62141,-1.65092 -15.10951,-3.2897 -23.85973,-5.0332 -86.42819,-17.22099 -153.32884,-23.94846 -205.10837,-23.95 z m 301.56291,49.00313 c 0.0482,0.13694 0.10733,0.26914 0.15517,0.40627 1.15755,5.19531 3.0885,10.37319 3.45327,15.72874 0.084,1.23306 0.0647,2.87054 0.0169,4.5169 15.79231,-5.25403 16.88154,-12.00581 -3.62537,-20.65191 z m -40.4038,27.80672 c -0.0762,0.30637 -0.16783,0.60811 -0.24545,0.91411 0.24581,-0.028 0.45797,-0.0592 0.70248,-0.0874 -0.1417,-0.2819 -0.3232,-0.5401 -0.45703,-0.82664 z" /><ellipse
       style="opacity:1;fill:#ffd101;fill-opacity:1;fill-rule:evenodd;stroke:#ffffff;stroke-width:0.472036;-inkscape-stroke:none"
       id="ellipse476"
       cx="771.66846"
       cy="294.509"
       rx="75.661858"
       ry="79.108101" /><path
       style="opacity:1;fill:#cccccc;fill-opacity:1;fill-rule:evenodd;stroke:#ffffff;stroke-width:0.326782;-inkscape-stroke:none"
       d="m 607.4115,728.76201 c 1.25075,1.49885 3.16466,2.42282 5.11626,2.46993 1.95159,0.0471 3.90786,-0.78344 5.22947,-2.2202 1.32161,-1.43676 1.98621,-3.45544 1.7766,-5.39632 -0.2096,-1.94087 -1.28987,-3.77112 -2.88776,-4.89259 -1.20421,-0.84517 -2.63979,-1.28018 -4.03794,-1.738 -2.97984,-0.97575 -6.03645,-2.20034 -8.07587,-4.582 -1.46697,-1.71315 -2.29199,-3.93008 -2.47843,-6.17777 -0.18644,-2.2477 0.24441,-4.5229 1.07393,-6.62023 1.45784,-3.68594 4.13126,-6.82658 7.34268,-9.14999 3.21142,-2.32341 6.94559,-3.85935 10.79024,-4.82374 7.68931,-1.92879 15.73203,-1.61505 23.65096,-1.98427 32.81745,-1.5301 65.03381,-15.57499 87.93233,-39.13309 22.89852,-23.5581 36.07156,-56.4866 34.96143,-89.32094 -0.46374,-13.7162 -3.28205,-27.68291 0.0636,-40.9929 1.67283,-6.65499 4.97552,-13.04108 10.16101,-17.5353 2.59274,-2.24711 5.63364,-3.99543 8.92011,-4.98078 3.28648,-0.98534 6.81853,-1.196 10.17422,-0.48103 3.76856,0.80294 7.24115,2.75273 10.12334,5.31003 2.88219,2.55729 5.196,5.70782 7.08179,9.06797 4.22928,7.53585 6.34495,16.1545 6.77404,24.78535 0.42908,8.63086 -0.78665,17.28692 -2.90461,25.66487 -4.23594,16.7559 -12.00713,32.37366 -17.91443,48.6158 -3.74046,10.28441 -6.74017,20.83976 -10.88488,30.96801 -7.85016,19.18311 -19.87652,36.7397 -35.46363,50.40201 -6.14646,5.38745 -12.80931,10.15176 -19.13631,15.326 -7.41457,6.06366 -14.44223,12.74274 -22.82313,17.38 -4.42968,2.451 -9.16595,4.28938 -13.86944,6.162 -11.50832,4.58186 -23.05146,9.45236 -35.28807,11.37601 -10.45782,1.64402 -21.18156,1.08056 -31.60125,-0.79 -8.12753,-1.45907 -16.11282,-3.7094 -23.80626,-6.70883 z"
       id="path477"
       inkscape:path-effect="#path-effect489"
       inkscape:original-d="m 607.4115,728.76201 c 3.07819,-3.34639 7.39905,-5.87931 9.23457,-10.03918 0.59156,-1.34065 -2.72727,-1.08269 -4.03794,-1.738 -2.76832,-1.38411 -5.4862,-2.88701 -8.07587,-4.582 -3.46078,-2.26514 -2.36572,-9.46132 -1.4045,-12.798 3.80082,-13.19378 31.33485,-13.17171 41.78388,-15.958 14.98248,-3.99518 31.61419,-86.80554 122.89376,-128.45403 30.21416,-13.78594 10.12192,-55.1112 29.31894,-63.99001 9.52311,-4.40453 15.55174,5.23747 17.20513,14.378 5.5931,30.92065 -3.82499,69.80076 -14.045,99.06602 -3.5948,10.29378 -6.49879,20.96812 -10.88488,30.96801 -7.9181,18.05255 -21.21897,36.78109 -35.46363,50.40201 -5.92247,5.66314 -12.96183,9.94844 -19.13631,15.326 -6.93379,6.03886 -14.75833,12.91352 -22.82313,17.38 -4.46885,2.47496 -9.26383,4.02271 -13.86944,6.162 -10.70984,4.9747 -23.34728,10.5163 -35.28807,11.37601 -9.58493,0.69008 -22.28398,1.87802 -31.60125,-0.79 -11.23921,-3.21838 -9.7911,-8.69149 -23.80626,-6.70883 z"
       transform="matrix(1.4445047,0,0,1.4445047,-260.95542,-335.62853)"
       sodipodi:nodetypes="cssssssssssssssssc" /><path
       style="opacity:1;fill:#ffffff;fill-opacity:1;fill-rule:evenodd;stroke:#ffffff;stroke-width:0.326782;-inkscape-stroke:none"
       d="m 437.2351,939.95326 c 1.77613,-0.63491 3.60532,-1.12129 5.46223,-1.4524 8.89984,-1.58696 17.98571,0.42294 26.93869,1.67584 15.64775,2.18978 31.5495,2.06085 47.29789,0.78206 5.53371,-0.44934 11.08055,-1.04431 16.45491,-2.43718 5.37436,-1.39287 10.59839,-3.61511 14.95288,-7.05926 7.33918,-5.80487 11.70931,-14.70247 13.83428,-23.81535 2.12496,-9.11289 2.22136,-18.55728 2.42825,-27.91235 0.11368,-5.14049 0.25043,-10.38547 -1.24141,-15.30604 -2.22252,-7.33059 -7.76449,-13.08507 -12.04172,-19.43978 -2.68716,-3.99234 -4.90538,-8.28384 -7.57263,-12.28952 -5.06177,-7.60178 -11.66619,-14.06646 -16.88324,-21.56252 -2.22684,-3.19961 -4.19112,-6.57334 -6.33121,-9.83161 -3.70938,-5.64752 -7.97276,-10.97246 -13.05219,-15.42818 -5.07942,-4.45572 -11.00332,-8.03003 -17.48661,-9.93292 -3.53109,-1.0364 -7.20373,-1.57449 -10.67616,-2.79307 -3.61694,-1.26929 -6.97138,-3.26167 -10.67617,-4.24547 -3.57505,-0.94935 -7.38987,-0.9157 -10.98062,-0.0276 -3.59076,0.8881 -6.95617,2.61868 -9.85001,4.92257 -5.78769,4.60779 -9.58082,11.40795 -11.44615,18.56683 -2.26588,8.69616 -1.84716,17.8341 -1.48969,26.8135 0.61357,15.41244 1.00003,30.83296 1.36555,46.25328 0.2851,12.02742 0.55743,24.06349 0.12414,36.08649 -0.37714,10.46489 -1.28909,20.91049 -2.73111,31.28241"
       id="path478"
       inkscape:path-effect="#path-effect491"
       inkscape:original-d="m 437.2351,939.95326 c 1.82075,-0.48414 3.604,-1.14182 5.46223,-1.4524 5.68953,-0.95093 21.0309,1.45079 26.93869,1.67584 15.77811,0.60105 31.51874,0.51157 47.29789,0.78206 12.80968,0.21959 22.12192,1.68902 31.40779,-9.49644 13.19574,-15.89516 16.26253,-31.82829 16.26253,-51.7277 0,-5.1197 0.27857,-10.33174 -1.24141,-15.30604 -2.22958,-7.29651 -7.93443,-13.16285 -12.04172,-19.43978 -2.64511,-4.04237 -4.67369,-8.40644 -7.57263,-12.28952 -5.46506,-7.32035 -11.42351,-14.25858 -16.88324,-21.56252 -2.31756,-3.1004 -3.64926,-6.95966 -6.33121,-9.83161 -4.29406,-4.59826 -24.37697,-23.29191 -30.5388,-25.3611 -3.50581,-1.17728 -7.17368,-1.64685 -10.67616,-2.79307 -3.51559,-1.15051 -7.01622,-3.70927 -10.67617,-4.24547 -14.97509,-2.19394 -28.38354,9.83603 -32.27678,23.4618 -2.45844,8.60421 -1.48969,17.99003 -1.48969,26.8135 0,15.55375 0.38941,30.73322 1.36555,46.25328 0.73713,11.71981 0.67886,24.35481 0.12414,36.08649 -0.49153,10.39558 -2.73111,20.90317 -2.73111,31.28241"
       transform="matrix(1.4445047,0,0,1.4445047,-260.95542,-335.62853)" /><path
       style="opacity:1;fill:#4d4d4d;fill-opacity:1;fill-rule:evenodd;stroke:#ffffff;stroke-width:0.32447;-inkscape-stroke:none"
       d="m 1170.7916,439.45935 c -2.5506,4.50511 -6.6332,8.12439 -11.4116,10.11657 -3.2587,1.35858 -6.8986,1.96849 -10.3581,1.264 -3.0905,-0.62934 -5.939,-2.30131 -8.0946,-4.60362 -2.1556,-2.3023 -3.625,-5.21604 -4.3277,-8.29069 -1.4053,-6.1493 0.2815,-12.73686 3.6441,-18.07369 3.8121,-6.05031 9.9661,-10.79757 17.0106,-12.02783 3.5222,-0.61513 7.2117,-0.34376 10.5644,0.89885 3.3526,1.24261 6.3532,3.46794 8.4153,6.38898 2.6988,3.82306 3.6945,8.80363 2.6728,13.37044 -1.0216,4.56681 -4.0446,8.64835 -8.1152,10.95699 z"
       id="path479"
       inkscape:path-effect="#path-effect493"
       inkscape:original-d="m 1170.7916,439.45935 c -4.3208,2.73726 -6.9178,7.60634 -11.4116,10.11657 -3.2247,1.80132 -6.81,1.264 -10.3581,1.264 -17.0321,0 -17.494,-20.98486 -8.7782,-30.968 5.0693,-5.80635 31.2472,-16.47877 35.9903,-4.74 4.1109,10.17406 -1.5785,15.75653 -5.4424,24.32743 z"
       transform="matrix(1.4651558,0,0,1.4445047,-1464.8798,-365.17006)" /><path
       id="path480"
       style="opacity:1;fill:#4d4d4d;fill-opacity:1;fill-rule:evenodd;stroke:#ffffff;stroke-width:0.326782;-inkscape-stroke:none"
       transform="matrix(1.4445047,0,0,1.4445047,-260.95542,-335.62853)"
       d="m 588.14517,645.90534 c -2.23116,-0.12459 -4.50691,0.0629 -6.71726,0.38129 -19.24935,2.77239 -36.7983,15.45537 -45.47001,32.86296 L 448.00739,797.2291 c 3.22587,-3.70031 6.62293,-7.25231 10.17596,-10.63973 3.45818,-3.297 7.26913,-6.54664 11.92017,-7.64075 2.32553,-0.54707 4.82076,-0.51145 7.05259,0.34073 2.23185,0.85218 4.17179,2.56325 5.07987,4.77293 0.84426,2.05441 0.764,4.39665 0.192,6.54285 -0.572,2.1462 -1.60647,4.13601 -2.65013,6.09665 -5.17365,9.71928 -10.8102,19.25484 -17.82212,27.74389 -7.01194,8.48903 -15.47028,15.93719 -25.36688,20.76295 -0.5597,0.27292 -1.13629,0.54536 -1.57386,0.98839 -0.21878,0.22152 -0.39823,0.48467 -0.50028,0.77882 -0.10204,0.29414 -0.12318,0.62023 -0.0324,0.91808 0.0685,0.22495 0.19968,0.42919 0.36913,0.59222 0.16945,0.16303 0.37642,0.28513 0.59898,0.36101 0.44513,0.15177 0.93987,0.11786 1.38456,-0.0351 0.44469,-0.15306 0.84385,-0.41861 1.20202,-0.72338 0.35818,-0.30477 0.67967,-0.64961 1.01003,-0.98433 2.62478,-2.65952 5.8018,-4.693 8.77787,-6.95254 5.86992,-4.45662 11.02136,-9.84856 17.18258,-13.8929 3.08062,-2.02217 6.41944,-3.70017 9.98531,-4.62961 3.56588,-0.92945 7.37305,-1.08808 10.92908,-0.12169 2.04141,0.55477 3.99734,1.48522 5.61801,2.84483 1.72841,1.45 3.04651,3.37137 3.84133,5.48279 0.79484,2.11144 1.07166,4.40784 0.87211,6.65508 -0.39908,4.49447 -2.69965,8.69824 -5.91547,11.86338 -3.2158,3.16515 -7.29883,5.34897 -11.56862,6.80786 -2.06957,0.70713 -4.18766,1.24636 -6.32922,1.69014 0.31952,1.49568 -0.77337,3.33887 -3.67232,4.12392 -0.45804,0.12404 -0.91786,0.24418 -1.38861,0.31099 -1.22214,0.19659 -2.44992,0.35998 -3.66827,0.5814 -1.73644,0.26922 -3.47875,0.47591 -5.22454,0.67335 -1.02853,0.14789 -2.0205,0.42524 -2.99492,0.78693 -1.83504,0.60872 -3.69559,1.11575 -5.55445,1.64551 -2.23763,0.67411 -4.46561,1.36772 -6.61316,2.29858 -1.03466,0.41374 -0.84666,0.3343 -1.81588,0.73826 -1.12677,0.4696 -2.27344,1.09576 -3.52765,1.10061 -1.97946,0.007 -3.32152,-0.63056 -4.03468,-1.49949 -3.79825,3.11363 -6.80277,7.28802 -7.79625,12.08243 -0.54348,2.62275 -0.48784,5.38008 0.26095,7.95174 0.74879,2.57167 2.20175,4.94912 4.21723,6.71322 2.90152,2.53964 6.87401,3.70309 10.72491,3.50466 1.53033,-0.0789 3.02692,-0.4102 4.48899,-0.8613 -0.85255,-1.22243 -0.0481,-3.09912 2.68529,-3.37756 0.0754,-0.008 0.11491,-0.01 0.13521,-0.008 0.49216,-0.33804 0.90653,-0.78573 1.39132,-1.13307 1.01776,-0.8197 2.06538,-1.60193 3.07604,-2.42973 l 0.001,-10e-4 c 0.62418,-0.97956 1.31334,-1.91421 2.04574,-2.81779 0.24509,-0.30981 1.22502,-1.38924 1.72259,-1.37779 0.0332,7.6e-4 0.0648,0.005 0.0933,0.0162 0.73817,0.28505 1.44036,0.69404 2.06467,1.19256 2.66333,-3.49335 4.84989,-7.42732 6.88763,-11.33201 2.13633,-4.09359 4.212,-8.23622 6.80921,-12.05403 2.59722,-3.81783 5.75628,-7.33098 9.67433,-9.77439 3.91804,-2.44339 8.65659,-3.75085 13.21685,-3.02601 2.28011,0.36242 4.48737,1.22964 6.35625,2.58523 1.86888,1.35558 3.3903,3.20351 4.28618,5.33136 1.08193,2.56973 1.22798,5.42718 1.22907,8.2154 0.003,7.41861 -0.93846,14.92108 -3.67909,21.81489 -2.74063,6.89383 -7.38266,13.16625 -13.7009,17.05413 -1.53044,0.94174 -3.14641,1.73762 -4.6864,2.66365 -1.53999,0.92604 -3.02051,1.99814 -4.15908,3.38838 -1.13858,1.39024 -1.91708,3.13156 -1.89836,4.92843 0.009,0.89844 0.21975,1.79841 0.6436,2.59064 0.42385,0.79223 1.06433,1.473 1.84833,1.91188 0.70296,0.39351 1.51056,0.58868 2.31616,0.59087 0.8056,0.002 1.60766,-0.1852 2.3432,-0.5138 1.47108,-0.65721 2.65004,-1.86026 3.50466,-3.22613 1.70925,-2.73174 2.19003,-6.03887 3.42354,-9.01585 1.81684,-4.38482 5.21104,-7.92368 8.8225,-11.00345 3.61145,-3.07975 7.52451,-5.82488 10.83984,-9.22137 4.91631,-5.03665 8.36622,-11.35061 13.26417,-16.40511 2.44898,-2.52726 5.28474,-4.74254 8.53856,-6.08313 3.2538,-1.34059 6.95678,-1.75755 10.32469,-0.7369 3.17778,0.96304 5.91359,3.17215 7.75433,5.93575 1.84074,2.7636 2.81706,6.05297 3.05847,9.36469 0.4828,6.62346 -1.87202,13.11912 -4.66748,19.14314 -1.08328,2.33438 -2.24689,4.65829 -2.85294,7.1594 -0.60606,2.50112 -0.60801,5.24621 0.57059,7.53394 0.73823,1.433 1.90912,2.6206 3.26669,3.48979 1.35755,0.8692 2.89762,1.43088 4.47412,1.76721 3.153,0.67263 6.41672,0.46241 9.64052,0.43132 5.51222,-0.0532 11.24074,0.38865 16.32669,-1.73746 3.20278,-1.33887 5.95575,-3.6496 8.03693,-6.42792 2.08118,-2.77831 3.50838,-6.01262 4.41057,-9.36469 1.80439,-6.70414 1.53318,-13.76937 1.24664,-20.70617 -0.29808,-7.21647 -0.59628,-14.46464 0.17578,-21.64588 1.65644,-15.40714 8.17273,-29.95862 10.00694,-45.34561 1.19795,-10.04942 0.70175,-20.21532 0.70175,-30.33588 v -56.24765 c 0,-17.91038 -0.18028,-35.82377 -0.87752,-53.72057 -0.20634,-5.29646 -0.46245,-10.67187 -2.13768,-15.70066 -0.83762,-2.51441 -2.03152,-4.92519 -3.66692,-7.01068 -1.63538,-2.08549 -3.7215,-3.8403 -6.13315,-4.93925 -2.03214,-0.926 -4.21974,-1.36138 -6.45091,-1.48596 z" /><path
       style="opacity:1;fill:#4d4d4d;fill-opacity:1;fill-rule:evenodd;stroke:#ffffff;stroke-width:0.326782;-inkscape-stroke:none"
       d="m 437.5723,525.80479 c -0.007,-1.57999 -0.007,-3.16001 0,-4.74 0.0107,-2.29698 0.0477,-4.65224 0.87781,-6.794 0.59745,-1.54146 1.59262,-2.91567 2.81033,-4.03381 1.21771,-1.11814 2.65426,-1.98502 4.17719,-2.62823 3.04587,-1.28642 6.39018,-1.67675 9.69092,-1.86996 8.85019,-0.51806 17.82767,0.30144 26.28125,2.97187 8.45358,2.67043 16.37359,7.23434 22.52513,13.61813 5.99804,6.2245 10.20033,14.0478 12.77283,22.30026 2.57249,8.25247 3.56117,16.93762 3.64175,25.58137 0.16116,17.2875 -3.249,34.40216 -4.30076,51.65839 -0.87856,14.41456 -0.10854,28.87348 0.70225,43.29201 0.73504,13.07157 1.47383,26.43293 -2.10675,39.02601 -0.95554,3.36068 -2.22173,6.65327 -4.03794,9.638 -4.72109,7.75854 -12.69714,12.81646 -19.663,18.64401 -5.21048,4.35903 -9.97568,9.28523 -13.86944,14.852 -5.19001,7.41996 -8.78465,15.89779 -14.34074,23.04775 -3.48503,4.48478 -7.8057,8.45263 -13.01044,10.72625 -2.60237,1.13681 -5.40687,1.83603 -8.24494,1.93604 -2.83808,0.10002 -5.70892,-0.40755 -8.29451,-1.58203 -4.04579,-1.83777 -7.25848,-5.26019 -9.2871,-9.21373 -2.02863,-3.95354 -2.932,-8.41484 -3.11246,-12.8548 -0.36092,-8.87991 2.06886,-17.60965 3.09474,-26.43748 2.42181,-20.8399 -3.00079,-41.75209 -3.51125,-62.72602 -0.50506,-20.75189 3.79779,-41.27198 7.0225,-61.77801 2.52925,-16.08359 4.40399,-32.27009 5.618,-48.50601 z"
       id="path481"
       inkscape:path-effect="#path-effect495"
       inkscape:original-d="m 437.5723,525.80479 c -1.50071,0.49425 -0.2477,-3.17953 0,-4.74 0.35823,-2.25675 0.0325,-4.63846 0.87781,-6.794 2.27597,-5.80349 11.13679,-7.70078 16.67844,-8.532 17.12056,-2.56798 39.74285,-0.17686 48.80638,16.59 15.34915,28.39481 10.10904,68.26673 12.11382,99.54002 0.92413,14.41596 0.70225,28.84799 0.70225,43.29201 0,12.91457 0.90773,26.36569 -2.10675,39.02601 -0.81689,3.4308 -3.11516,6.3161 -4.03794,9.638 -1.94991,7.0194 -14.35089,14.23104 -19.663,18.64401 -5.4614,4.53697 -9.47123,9.40943 -13.86944,14.852 -3.9952,4.94386 -9.68702,18.85957 -14.34074,23.04775 -4.59982,4.13967 -24.04717,13.99335 -29.54989,11.08026 -7.66289,-4.05667 -8.6419,-39.85529 -9.30482,-48.50601 -1.5295,-19.95918 -4.57974,-43.01312 -3.51125,-62.72602 1.11548,-20.57967 4.40893,-41.39291 7.0225,-61.77801 2.06357,-16.0952 1.21512,-32.65625 5.618,-48.50601 z"
       sodipodi:nodetypes="cssssssssssssssscc"
       transform="matrix(1.4445047,0,0,1.4445047,-260.95542,-335.62853)" /><path
       id="path482"
       style="display:inline;opacity:1;fill:#ffffff;fill-opacity:1;fill-rule:evenodd;stroke:#ffffff;stroke-width:0.472036;-inkscape-stroke:none"
       d="m 469.27539,37.771484 c -1.7597,0.901375 -4.06449,1.446942 -6.95508,1.376954 -1.61749,-0.03916 1.23132,-0.04231 -0.61328,3.943359 -0.20666,0.446516 -1.20452,-0.317507 -1.47461,0.09375 -0.92683,1.411222 -0.6082,3.492217 -1.7168,4.765625 -1.30141,1.494918 -5.38105,-2.246502 -5.49218,2.279297 -7.97027,0.333869 -15.94508,0.418661 -23.91992,0.595703 -8.6639,0.257408 -17.32384,0.629908 -25.9629,1.359375 -7.63456,0.648189 -15.26484,1.358177 -22.85937,2.386719 -7.20436,0.962409 -14.40664,1.960326 -21.5625,3.242187 -7.17577,1.361313 -14.31381,2.896037 -21.41992,4.585938 -4.29054,1.021935 -8.57493,2.07562 -12.84375,3.185547 -0.17441,0.491586 -0.2755,0.950428 -0.4961,1.460937 -1.46617,3.393101 1.21694,-3.286543 -0.0508,4.728516 -0.12238,0.773705 -1.03836,1.222101 -1.29297,1.96289 -0.41987,1.221633 -0.18521,2.624874 -0.69335,3.8125 -0.39404,0.920912 -1.41459,1.445234 -1.92579,2.306641 -0.74416,1.253952 -1.20436,2.656438 -1.80664,3.984375 l -2.61718,2.585937 c -1.05224,1.341295 -1.96338,2.805525 -3.15625,4.023438 -1.01905,1.040438 -2.3415,1.737437 -3.43164,2.703125 -1.60418,1.421033 -2.94261,3.144282 -4.64258,4.449219 -1.45172,1.114375 -3.18902,1.796134 -4.7461,2.757814 -1.99175,1.23014 -3.93103,2.54269 -5.89648,3.81445 -1.91603,0.86463 -3.85281,1.68445 -5.74805,2.59375 -2.03774,0.97767 -3.98858,2.13714 -6.04883,3.06641 -1.86707,0.84215 -3.83101,1.45207 -5.7207,2.24218 -1.89812,0.79365 -3.73939,1.72172 -5.64062,2.50782 -3.46372,1.43215 -6.98887,2.70952 -10.45704,4.13086 -9.96874,3.90985 -19.66529,8.4654 -29.39843,12.91797 -9.16442,4.22626 -18.41129,8.27168 -27.54493,12.56445 -7.32741,3.38874 -14.3976,7.28975 -21.41796,11.26562 -3.55477,2.03891 -7.0921,4.10908 -10.63477,6.16993 -0.88367,1.18123 -1.7146,2.40173 -2.62305,3.56445 -2.81962,3.43377 -5.79723,6.7198 -8.77734,10.01367 -2.89337,3.36084 -5.71217,6.78451 -8.47461,10.25391 -3.32092,4.2126 -6.52301,8.51273 -9.7168,12.82226 -3.28965,4.40019 -6.64084,8.75358 -9.9375,13.14844 -2.59377,3.55003 -5.15997,7.12904 -8.01562,10.47656 -0.23383,0.26544 -0.45497,0.54174 -0.68945,0.80664 -0.75984,2.79647 -1.45672,5.60957 -2.0254,8.45118 -0.84924,4.33215 -1.42739,8.71416 -1.75781,13.11523 -0.3705,5.1291 -0.43961,10.27376 -0.59375,15.41211 -0.1488,4.77078 -0.36307,9.53765 -0.50586,14.30859 -0.13607,6.54061 -0.67091,13.06454 -1.3125,19.57227 -0.68275,6.61518 -1.57292,13.20679 -2.43164,19.80078 -1.02598,7.86225 -1.87469,15.7471 -2.85351,23.61523 -1.14539,9.5002 -2.80477,18.92475 -4.3125,28.3711 -2.14972,13.7285 1.00808,-3.36387 -3.06641,10.08789 -0.46609,1.53877 0.0124,3.32324 -0.67773,4.77539 -0.7619,1.60308 -2.70343,2.42752 -3.500004,4.01367 -3.837496,7.64131 4.806544,0.78488 -5.146484,6.76172 L 132.666,493.14648 c 3.29861,-7.79971 4.4319,-16.51906 4.2871,-25.09765 -0.2896,-17.15719 29.95066,-7.5649 28.38282,-24.64063 -2.5047,-27.27912 -10.3384,-61.09655 2.5332,-98.40234 17.42304,-50.49733 16.73174,-81.45474 40.50977,-129.67969 31.9201,-64.73818 149.5256,-100.47074 230.08984,-94.0664 151.03979,12.00665 210.66564,64.14007 279.26367,86.35742 5.27542,1.70859 11.09177,0.99378 16.50391,-0.25586 5.41213,-1.24966 10.6075,-3.84917 14.73828,-7.83985 3.98467,-3.84953 6.90566,-8.92932 8.55469,-14.43164 1.64905,-5.50229 2.04624,-11.41046 1.3789,-17.15039 -1.33473,-11.4798 -6.84982,-22.03446 -14.01953,-30.60742 C 728.69063,117.96384 705.07947,108.43972 682.7617,98.527344 651.5806,84.678367 621.06567,68.75906 588.75389,58.392578 570.56304,52.556478 551.91696,48.521474 533.1699,45.371094 511.98872,41.811685 490.65624,39.466965 469.27537,37.771484 Z" /><path
       style="display:inline;opacity:1;fill:#ffffff;fill-opacity:1;fill-rule:evenodd;stroke:#ffffff;stroke-width:0.326782;-inkscape-stroke:none"
       d="m 581.63524,293.89937 c 0.0435,-0.62868 -0.16176,-1.27121 -0.56167,-1.75823 -0.39991,-0.48703 -0.99022,-0.81338 -1.61535,-0.89304 -0.62512,-0.0797 -1.27841,0.0882 -1.78768,0.45942 -0.50926,0.37118 -0.86909,0.9417 -0.98463,1.5612 -0.0991,0.53127 -0.0218,1.08766 0.17648,1.5904 0.1983,0.50274 0.51389,0.9539 0.88555,1.34625 0.74331,0.78471 1.69584,1.33124 2.60014,1.92329 4.38082,2.86814 7.80902,6.9553 11.85551,10.27851 3.6464,2.99463 7.76956,5.34816 11.91758,7.59716 3.18273,1.72563 6.39529,3.39978 9.68303,4.9158 15.0958,6.96089 31.56656,10.49825 46.80133,17.14947 3.26812,1.4268 6.47342,2.99445 9.7451,4.41305 6.8349,2.96361 13.96423,5.27928 20.54541,8.77025 5.20639,2.76172 10.00535,6.22563 15.08319,9.21714 3.10899,1.8316 6.3202,3.48471 9.43475,5.30684 12.49387,7.30938 23.22931,17.20815 34.57339,26.19901 5.55132,4.39975 11.26321,8.59236 16.88324,12.904 8.75521,6.71693 17.41913,13.86451 23.58687,23.01491 3.57564,5.30478 6.23938,11.18091 9.81983,16.48245 1.79022,2.65076 3.81617,5.16125 6.214,7.2783 2.39783,2.11705 5.18104,3.83591 8.23583,4.78445 1.91744,0.59538 3.94847,0.88349 5.94392,0.66164 1.99545,-0.22185 3.95471,-0.97264 5.47709,-2.28162 1.483,-1.27512 2.50604,-3.04096 3.03059,-4.92512 0.52455,-1.88416 0.56693,-3.88278 0.28415,-5.81804 -0.56556,-3.87052 -2.38205,-7.42757 -4.12166,-10.93108 -4.82798,-9.72336 -9.26858,-19.65455 -14.71076,-29.04795 -4.29683,-7.41648 -9.21195,-14.48137 -14.77283,-21.00391 -4.32852,-5.07706 -9.03819,-9.81555 -13.46935,-14.80328 -4.91917,-5.53704 -9.496,-11.38216 -14.64869,-16.70257 -5.18842,-5.35731 -10.92866,-10.14939 -16.26253,-15.3619 -2.37008,-2.31615 -4.65958,-4.71499 -7.07606,-6.98268 -5.51507,-5.1755 -11.65305,-9.63303 -17.69016,-14.18881 -2.92671,-2.20858 -5.84228,-4.44935 -9.00025,-6.31234 -6.07494,-3.5838 -12.88566,-5.6802 -19.49021,-8.15577 -9.09398,-3.40868 -17.917,-7.58919 -27.24905,-10.27851 -4.93879,-1.42327 -9.98852,-2.41925 -15.02112,-3.46341 -19.08846,-3.96044 -38.30882,-8.6652 -57.78784,-7.87646 -3.28052,0.13283 -6.60124,0.43187 -9.68303,1.56412 -4.37322,1.60672 -7.9748,4.77749 -11.29687,8.04405 -1.07295,1.05502 -2.14346,2.14691 -2.85973,3.47026 -0.35814,0.66167 -0.62352,1.37805 -0.73468,2.12218 -0.11116,0.74412 -0.0648,1.51691 0.18052,2.22816 0.34686,1.00556 1.0986,1.86495 2.04908,2.34251 0.95047,0.47757 2.08869,0.56777 3.10252,0.24589 1.01383,-0.32188 1.89156,-1.05213 2.39249,-1.9905 0.50093,-0.93837 0.61926,-2.074 0.32256,-3.09549"
       id="path483"
       inkscape:path-effect="#path-effect497"
       inkscape:original-d="m 581.63524,293.89937 c -1.64978,-0.21022 -4.4651,-2.22171 -4.94933,-0.63065 -0.59059,1.94054 2.43857,3.24213 3.66217,4.85994 3.61074,4.77401 6.77998,6.99742 11.85551,10.27851 3.95382,2.55596 7.80053,5.30346 11.91758,7.59716 3.16667,1.76422 6.49259,3.20408 9.68303,4.9158 14.70525,7.88962 31.09934,11.79327 46.80133,17.14947 3.43386,1.17134 6.47483,2.90559 9.7451,4.41305 6.75353,3.11309 13.8237,5.56229 20.54541,8.77025 5.39043,2.5726 9.98697,6.1773 15.08319,9.21714 3.09197,1.84432 6.44125,3.29885 9.43475,5.30684 12.02664,8.06724 23.40854,17.00619 34.57339,26.19901 5.48269,4.5143 11.57634,8.18105 16.88324,12.904 8.16662,7.268 16.41607,14.73764 23.58687,23.01491 8.18574,9.44882 15.59681,19.52038 24.26966,28.5452 3.58785,3.73347 8.58,3.39894 11.42101,-1.61998 3.40185,-6.0097 0.92602,-15.55143 -0.80692,-21.67424 -3.72623,-13.16551 -6.80598,-18.57237 -14.71076,-29.04795 -5.15624,-6.83317 -9.4754,-14.26365 -14.77283,-21.00391 -4.13558,-5.26196 -8.98414,-9.85655 -13.46935,-14.80328 -4.96734,-5.47847 -9.47653,-11.41085 -14.64869,-16.70257 -5.21945,-5.34011 -10.83936,-10.24121 -16.26253,-15.3619 -2.41002,-2.2756 -4.62589,-4.74612 -7.07606,-6.98268 -5.5627,-5.07775 -11.59836,-9.76751 -17.69016,-14.18881 -2.8948,-2.10098 -5.87741,-4.62607 -9.00025,-6.31234 -6.13862,-3.31472 -13.02453,-5.54149 -19.49021,-8.15577 -9.01561,-3.6453 -17.98429,-7.29034 -27.24905,-10.27851 -4.90085,-1.58067 -10.05944,-2.11417 -15.02112,-3.46341 -18.7707,-5.10435 -38.23471,-9.30879 -57.78784,-7.87646 -3.3368,0.24443 -6.46837,0.63952 -9.68303,1.56412 -6.52321,1.87619 -8.18992,2.07046 -11.29687,8.04405 -0.35132,0.67545 -4.50077,8.02839 -3.41389,7.8206 2.70226,-0.51662 5.24443,-1.66506 7.86665,-2.49759"
       transform="matrix(1.4445047,0,0,1.4445047,-260.95542,-335.62853)" /><path
       style="display:inline;opacity:1;fill:#4d4d4d;fill-opacity:1;fill-rule:evenodd;stroke:#ffffff;stroke-width:0.326782;-inkscape-stroke:none"
       d="m 594.33646,628.21582 c 3.95416,-1.45875 7.68567,-3.51933 11.02642,-6.0889 3.57212,-2.74753 6.67216,-6.0489 9.93131,-9.16128 4.47613,-4.27455 9.29362,-8.23215 13.22107,-13.01572 4.03891,-4.91932 7.0361,-10.58929 10.24166,-16.08809 6.37813,-10.94099 13.80366,-21.64799 16.51082,-34.01962 0.43381,-1.98248 0.75608,-4.03357 1.73798,-5.8096 1.23286,-2.22997 3.47795,-3.84863 5.96044,-4.42308 2.48249,-0.57446 5.166,-0.12566 7.38476,1.12726 1.72519,0.9742 3.16878,2.40891 4.27355,4.05354 1.10478,1.64464 1.87941,3.49613 2.41454,5.40374 1.07026,3.81522 1.19211,7.81996 1.50525,11.77007 0.56677,7.1495 1.78183,14.29483 1.30348,21.45079 -0.34946,5.22783 -1.60592,10.37993 -3.53803,15.25018 -1.91997,4.83963 -4.4932,9.38875 -7.07606,13.9095 -4.38336,7.67215 -8.92312,15.44495 -15.45561,21.39493 -2.58556,2.35501 -5.44736,4.38882 -8.06919,6.70338 -1.62503,1.43459 -3.1651,2.98264 -4.96566,4.18961 -2.18442,1.46428 -4.68016,2.37923 -7.07606,3.46341 -1.6367,0.74063 -3.2364,1.56527 -4.90359,2.23445 -4.20046,1.68599 -8.94234,2.34352 -13.28314,1.06137 -2.14916,-0.6348 -4.13404,-1.7185 -6.20707,-2.56962 -2.49064,-1.02258 -5.17596,-1.74491 -7.27137,-3.43553 -1.04771,-0.84531 -1.92549,-1.93674 -2.36179,-3.21027 -0.43629,-1.27353 -0.39663,-2.7371 0.26048,-3.91202 0.44426,-0.79434 1.1592,-1.43403 1.99787,-1.78756"
       id="path484"
       inkscape:path-effect="#path-effect499"
       inkscape:original-d="m 594.33646,628.21582 c 3.42887,-2.43621 7.60606,-3.53163 11.02642,-6.0889 3.6481,-2.72755 6.48841,-6.20624 9.93131,-9.16128 4.90688,-4.21157 9.0473,-7.95924 13.22107,-13.01572 3.99621,-4.84137 6.92707,-10.78008 10.24166,-16.08809 6.80163,-10.89218 12.82827,-21.67722 16.51082,-34.01962 0.17135,-0.57431 1.67363,-5.66772 1.73798,-5.8096 2.208,-4.86844 9.18255,-6.51933 13.3452,-3.29582 5.53648,4.28738 7.05442,14.67282 8.19334,21.22735 1.16882,6.7266 2.31885,14.56033 1.30348,21.45079 -0.83258,5.65012 -1.64258,10.1668 -3.53803,15.25018 -1.81908,4.8786 -4.51498,9.39824 -7.07606,13.9095 -4.39587,7.74319 -9.28406,14.91506 -15.45561,21.39493 -2.41564,2.53633 -5.41946,4.43093 -8.06919,6.70338 -2.10199,1.80269 -2.74996,2.65992 -4.96566,4.18961 -2.19121,1.51277 -4.66386,2.39243 -7.07606,3.46341 -1.6604,0.73718 -3.16409,1.63957 -4.90359,2.23445 -3.89378,1.33162 -9.22812,1.45709 -13.28314,1.06137 -2.14166,-0.209 -4.38777,-1.5379 -6.20707,-2.56962 -4.52826,-2.56798 -8.66164,-4.99058 -9.37268,-10.55782 -0.31595,-2.4738 -0.39334,-1.78756 1.99787,-1.78756"
       transform="matrix(1.4445047,0,0,1.4445047,-260.95542,-335.62853)" /><path
       id="path485"
       style="display:inline;opacity:1;fill:#ffffff;fill-opacity:1;fill-rule:evenodd;stroke:#ffffff;stroke-width:0.472036;-inkscape-stroke:none"
       d="m 912.90494,514.12956 c -0.75226,-0.0766 -1.81669,-0.004 -3.78055,0.0903 -1.08084,2.50739 -1.57595,5.21772 -2.55609,7.76703 -0.93611,2.50537 -1.75511,5.03131 -2.65483,7.54698 -0.88548,2.61654 -1.65011,5.27519 -2.49121,7.90528 -1.06062,3.85522 -2.12279,7.71565 -2.76488,11.66889 -0.7759,3.71671 -1.88008,7.38117 -3.28116,10.90996 -1.03218,3.55074 -1.83155,7.16522 -2.95673,10.68425 -1.4706,3.60484 -2.18205,7.51083 -3.98085,11.00872 -1.57893,3.44456 -2.95476,6.9969 -4.97112,10.21874 -1.81622,3.67846 -3.98725,7.1183 -6.07708,10.64192 -2.3492,3.82705 -5.03355,7.41628 -7.45105,11.19774 -2.33604,3.52439 -4.78338,6.95424 -7.38897,10.28364 -1.83206,2.78287 -3.91619,5.37693 -5.73006,8.17329 -1.75846,2.43676 -3.66982,4.7549 -5.4959,7.14071 -1.61066,2.15456 -3.161,4.3488 -4.79338,6.48616 -1.53205,2.30717 -3.27112,4.45878 -4.90623,6.69213 -1.7735,2.26062 -3.53344,4.51132 -5.54103,6.57644 -2.05421,2.16088 -3.97822,4.43934 -6.18147,6.45513 -2.11722,2.29021 -4.39631,4.41983 -6.79087,6.41845 -2.3841,1.82471 -4.68195,3.75993 -7.04478,5.61157 -3.06875,2.32892 -6.12908,4.65913 -9.36106,6.757 -3.41084,2.16188 -6.79215,4.38832 -10.49523,6.03758 -5.85887,2.75639 -11.98378,4.88123 -18.29612,6.34511 -6.0611,1.37044 -12.1145,2.76174 -18.12119,4.35889 -5.27973,1.43039 -10.58938,2.71533 -15.867,4.15579 -4.55088,1.09226 -8.99643,2.60054 -13.56762,3.62535 -5.29993,1.21752 -10.55516,2.61773 -15.78798,4.09654 -5.38846,1.36731 -10.77106,2.73202 -16.12371,4.23476 -4.93017,1.48691 -9.82151,3.10023 -14.71308,4.70876 -5.1264,1.90624 -10.28667,3.74 -15.33375,5.84855 -4.23805,1.5884 -8.5223,3.03034 -12.79176,4.52817 -3.04677,0.82379 -6.03734,1.88895 -9.2059,2.16394 -2.68189,0.74549 -5.3872,1.47587 -8.16767,1.73509 -2.4263,0.24563 -4.83919,0.54505 -7.26766,0.77586 -2.79443,0.24518 -5.25983,1.62917 -7.53568,3.21346 -3.79712,2.87692 -7.79808,5.55651 -11.21466,8.88145 -2.85826,3.07641 -5.10677,6.5902 -7.23099,10.20464 -2.69868,3.88316 -4.40084,8.41313 -7.2592,12.23033 l 62.73721,36.33267 c 1.55115,-2.56208 2.89377,-5.33881 4.79621,-7.67393 4.00247,-4.91284 -0.61773,1.564 2.99057,-3.66769 2.34983,-3.06085 4.79497,-6.03709 7.42002,-8.86452 3.08753,-2.85146 6.74145,-4.98029 10.6504,-6.48334 2.05594,-0.79316 4.21665,-0.11267 6.3084,-0.40909 2.51242,-0.26795 4.99228,-0.64426 7.43979,-1.26676 2.78377,-0.8518 5.66994,-1.3365 8.54288,-1.77742 3.04827,-1.19298 6.2318,-1.99278 9.24539,-3.26989 4.17055,-1.60525 8.22922,-3.47166 12.37422,-5.1404 5.04024,-2.016 10.1224,-3.86491 15.33657,-5.38304 4.89,-1.47338 9.75308,-3.02689 14.69333,-4.32505 5.27378,-1.45626 10.56856,-2.82182 15.85005,-4.2517 5.29393,-1.39707 10.66991,-2.44504 15.96573,-3.83131 4.67183,-1.16931 9.39704,-2.15441 13.97389,-3.66487 5.19114,-1.43533 10.38616,-2.83269 15.61306,-4.13038 5.91204,-1.49404 11.81958,-2.94476 17.63593,-4.7821 0.91054,-0.27847 1.79536,-0.62548 2.69998,-0.91975 2.49796,-2.07066 4.99429,-4.1418 7.48774,-6.21814 8.24406,-6.58785 16.22948,-13.48629 24.02617,-20.59548 0.0644,-0.0577 0.12466,-0.11988 0.18902,-0.17774 9.48514,-11.68433 19.31323,-23.08995 28.74621,-34.81763 2.01559,-2.47524 3.97662,-4.99372 5.95012,-7.50184 11.07347,-18.17713 22.22076,-36.30709 33.39007,-54.42567 7.39185,-11.6636 14.44556,-23.53326 21.25847,-35.5427 2.56819,-4.57774 5.05065,-9.20185 7.52158,-13.83283 0.0703,-0.14157 0.14673,-0.27541 0.22008,-0.41474 0.61468,-1.95076 1.25475,-3.89452 1.93258,-5.82598 0.56907,-1.7642 1.12174,-3.54185 1.59685,-5.33788 -0.59844,-0.42132 -1.46005,-0.84937 -2.54199,-1.25832 -6.50244,-1.54688 -9.32845,-2.34352 -8.88991,-2.35578 0.59757,-0.0168 5.48244,1.06789 8.88991,2.35578 0.54766,0.1303 2.09339,0.45763 2.69152,0.59813 0.20573,-0.84178 0.44984,-1.67428 0.57273,-2.53353 -4.93041,-6.61416 -0.70347,-1.46955 -16.99833,-10.49522 l -31.11045,-17.4441 c -12.341,-6.2536 -11.77073,-7.81673 -14.0275,-8.04634 z" /><path
       id="path486"
       style="display:inline;fill:#000000;stroke-width:3.1415"
       d="m 592.0586,34.373996 -123.51643,0.0029 c -43.81811,0.283132 -87.64484,-0.433091 -131.46121,0.09592 V 61.483928 C 69.010667,131.22906 21.555096,385.15949 171.46228,572.50003 182.78773,538.52414 256.25285,448.36026 337.08096,424.29442 V 734.96159 1045.626 H 482.25367 627.4264 V 937.40389 829.18172 c 46.18534,-5.70724 91.47889,-15.2126 134.61541,-33.5537 94.28283,-40.46163 152.63425,-105.85017 198.79432,-192.7398 13.28621,-28.1741 22.27976,-57.77645 28.31455,-88.26432 l 3.68743,-18.62903 C 1024.7098,288.24161 872.44637,33.321321 592.0586,34.373996 Z m 21.3657,57.402132 c 123.96918,8.638062 175.35752,27.693312 277.5685,151.611572 8.05677,7.42016 41.42667,77.97343 15.56885,44.44914 C 827.52878,192.71805 715.18789,134.382 608.64784,95.545389 c -8.48936,-3.300135 -0.13173,-3.609847 4.77646,-3.769261 z m 106.70995,98.133132 c -42.50819,35.31448 -52.29946,50.53397 -55.57111,112.80962 -177.27579,-56.71196 -311.35971,-12.90939 -378.21195,20.29645 14.99578,-29.82526 19.59305,-67.17869 -1.51503,-94.58402 -2.79556,-4.67655 -46.5412,-51.52411 -89.51134,-4.00626 -39.39557,56.67971 -55.44828,91.14741 -47.38644,229.62263 -25.25503,-31.10844 -36.43311,-133.94104 13.40172,-218.26125 14.29844,-26.27034 35.3337,-47.56887 56.56986,-68.28106 24.61306,-21.31454 52.61223,-36.61611 85.22578,-47.51913 179.86137,-61.074408 407.70873,63.01978 416.99851,69.92302 z m 92.91099,55.85642 c 26.45851,23.3323 32.16793,43.9618 29.86346,75.797 l 9.6714,9.93379 c 47.41271,48.69897 42.907,118.36153 26.77703,168.31865 -15.2976,47.34339 -69.84533,165.75918 -233.87434,171.71831 -9.72898,-0.18051 -15.33207,-3.97116 -13.72279,-14.07263 4.00037,-12.60503 6.75847,-10.17869 15.1955,-14.73564 32.4345,-12.1334 86.48812,-42.09186 106.22753,-110.61746 l 2.97647,-11.55603 c 4.87338,-40.86042 -6.84442,-83.79756 -43.14612,-108.12344 l -6.13914,-3.86235 c 3.09008,-48.74666 -9.19986,-100.54614 9.50495,-147.04607 21.79224,-54.34169 61.45445,-38.46165 96.66605,-15.75413 z m -580.25921,-7.32717 c 9.68514,10.58616 -17.25206,41.63106 -31.48851,29.00589 -7.08733,-13.27393 20.08515,-32.53638 31.48851,-29.00589 z m 505.86723,67.17228 c -0.17421,37.08907 73.16237,44.43535 75.47818,-2.85515 -2.51025,-50.30416 -75.22721,-49.83798 -75.47818,2.85515 z m -139.3947,6.27456 c 20.3724,3.21971 40.04275,9.42322 59.94694,14.69615 v 0.92819 0.9254 c -24.78901,10.99627 -45.37953,28.45054 -64.56541,47.14108 -144.50953,-30.51783 -310.06016,-29.08051 -407.06536,92.11255 l -1.08339,0.0678 -1.08337,0.0705 v -1.63919 -1.63918 C 227.92971,357.99229 384.40753,270.78956 599.25856,311.88541 Z m -194.5465,108.36266 0.26062,167.3882 0.17746,174.70537 c -0.053,5.84369 -4.76412,10.76317 -9.61464,15.2354 -3.56337,3.69446 -7.907,3.26009 -7.907,3.26009 l -1.02811,-186.06015 -0.14224,-174.75626 c 0.21005,-2.78112 -0.27631,-9.1625 9.19801,-9.57467 5.53185,-0.0459 9.3665,2.59033 9.0559,9.80202 z m 130.26604,-7.48996 c 53.44835,7.09861 95.1047,17.44184 132.17218,31.3277 -3.7506,42.67444 -28.72563,97.40813 -132.17218,97.40813 v -64.36791 z m -87.81725,6.04978 c 9.17953,-0.12482 8.04879,6.37493 8.36949,14.74037 l -0.10438,128.00511 -0.10153,128.00229 c 0.12015,8.19773 -0.49046,18.50316 -2.02568,22.2262 -3.2364,6.71314 -9.81693,11.04986 -15.47625,15.35867 -0.596,-49.62447 -0.38477,-101.4656 -0.22711,-151.37063 l 0.45988,-145.56771 c 0.20203,-5.62398 1.01955,-11.17957 9.10558,-11.3943 z m 259.08697,51.18307 c 14.81869,26.63994 14.3463,64.15394 -44.87549,108.63973 -21.79304,12.40187 -17.48286,0.71932 -10.83379,-8.87579 40.94139,-36.42073 51.40677,-60.91985 55.70928,-99.76394 z m 203.5514,87.42591 c 5.58672,-6.11126 12.66726,-6.11126 14.09202,0.25722 -6.46448,47.94403 -98.3833,189.6725 -273.17944,214.5602 -8.92271,1.48846 -14.46514,-1.03719 -17.71576,-4.58606 -1.01282,-10.90487 0.49549,-8.49277 18.63682,-13.7173 83.06272,-18.74316 188.62504,-55.80419 249.83751,-183.15191 z m -315.59643,66.41384 c -0.37181,155.49072 -2.13689,208.05336 -42.20937,288.17868 -30.70823,61.40151 -36.58268,84.20522 -63.69596,71.85425 -9.48384,-10.03242 -7.96052,-16.20838 -1.92719,-28.73971 9.03617,-18.23125 31.23199,-35.95162 48.54017,-78.86603 l 4.82443,-10.47266 7.71624,-18.77856 c 0.10622,-4.60548 11.39064,-19.69328 6.57818,-26.37635 -0.12163,-0.16972 -0.25297,-0.33105 -0.3837,-0.49374 -0.10194,-0.12365 -0.2014,-0.24955 -0.30751,-0.36958 -0.0575,-0.0604 -0.10603,-0.12148 -0.16647,-0.17776 -0.17376,-0.16473 -0.32557,-0.34966 -0.48526,-0.52757 -0.0667,-0.0526 -0.12669,-0.11238 -0.19467,-0.16363 -0.0963,-0.0742 -0.20373,-0.13 -0.3047,-0.1975 -0.11903,-0.094 -0.2456,-0.17323 -0.37806,-0.24545 -0.0802,-0.0261 -0.16217,-0.0628 -0.24263,-0.0932 -0.10099,-0.0411 -0.20504,-0.0655 -0.31034,-0.0903 -0.12451,-0.0293 -0.27347,-0.0657 -0.37805,-0.0874 -0.10174,0.005 -0.21843,8.3e-4 -0.32445,-0.0115 -0.16206,-0.0115 -0.32575,-0.0154 -0.48809,-0.0198 -0.19743,0.007 -0.39464,0.0147 -0.59247,0.0145 -8.57174,-0.0296 -10.33454,10.89974 -13.65219,17.6448 l -9.77297,19.86194 c -16.62555,30.79714 -39.42064,57.29268 -62.57357,83.35525 -15.24933,14.47213 -32.6376,25.9043 -50.05829,37.50352 -4.33184,2.45265 -8.03678,3.64924 -12.05541,5.47332 -6.2207,1.38292 -9.50801,0.55082 -14.00211,-3.19372 -3.0598,-3.36845 -3.18903,-4.29908 -4.12474,-7.57802 -1.36084,-6.68986 1.24843,-9.24738 5.67081,-13.71432 60.02677,-50.4561 88.89281,-89.29183 120.07164,-134.25429 2.43024,-3.70449 2.7877,-8.12357 -1.13405,-11.29767 -3.81405,-1.93429 -6.80902,-2.00411 -10.16526,1.2087 -18.01668,25.19184 -63.95404,79.41104 -87.64926,91.00661 l -5.77802,2.70845 c -8.40005,1.86796 -13.75469,1.49784 -16.63657,-4.57304 -1.46155,-8.47422 -2.05544,-14.4061 2.92224,-21.14869 37.63447,-39.26042 59.19305,-63.09837 90.38868,-102.05485 l 5.1658,-7.31844 c 3.50376,-4.24511 6.06933,-9.00545 8.64727,-13.81872 6.44459,-10.49155 -6.71159,-11.02682 -11.66607,-7.03068 -5.95861,8.0926 -35.10153,46.20941 -96.72087,106.07488 -0.15888,-13.68293 -0.15686,-27.36607 -0.15686,-41.0496 11.80285,-14.40871 17.42512,-21.03382 38.13548,-46.92665 13.11831,-14.60341 22.86296,-26.77913 34.7584,-39.75774 34.57615,-27.6638 86.17734,-105.45773 135.11582,-105.45773 z m -18.90551,295.4012 0.0761,0.72225 0.0734,0.72225 c 0.91721,20.22754 0.61661,17.88587 2.5362,34.75307 2.10995,12.53186 -1.00082,21.70893 -11.06185,17.80804 -6.77682,-3.51632 -9.79903,-5.17781 -8.35143,-14.09833 2.41556,-14.45259 6.40843,-19.1773 10.50087,-28.35124 l 3.11189,-5.77802 z"
       sodipodi:nodetypes="ccccccccccccccccccccccccccccccccccccccccccccccccccccccccccccccccccccccccccccccccccccccccccccccccccccccccccccccccscccccccccccccccccccccccccccccccccccccc" /></g></svg>
